<mxfile host="65bd71144e" pages="5">
    <diagram id="civY7r08-raM6o8gZu8t" name="Mein-Profil_Update">
        <mxGraphModel dx="734" dy="1542" grid="1" gridSize="10" guides="1" tooltips="1" connect="1" arrows="1" fold="1" page="1" pageScale="1" pageWidth="827" pageHeight="1169" math="0" shadow="0">
            <root>
                <mxCell id="0"/>
                <mxCell id="1" parent="0"/>
                <mxCell id="JkbfO2LJnXiNEJes6LOU-1" value="" style="strokeWidth=1;shadow=0;dashed=0;align=center;html=1;shape=mxgraph.mockup.containers.browserWindow;rSize=0;strokeColor=#666666;strokeColor2=#008cff;strokeColor3=#c4c4c4;mainText=,;recursiveResize=0;" parent="1" vertex="1">
                    <mxGeometry x="40" y="-110" width="740" height="550" as="geometry"/>
                </mxCell>
                <mxCell id="JkbfO2LJnXiNEJes6LOU-2" value="Mein Profil" style="strokeWidth=1;shadow=0;dashed=0;align=center;html=1;shape=mxgraph.mockup.containers.anchor;fontSize=17;fontColor=#666666;align=left;" parent="JkbfO2LJnXiNEJes6LOU-1" vertex="1">
                    <mxGeometry x="60" y="12" width="110" height="26" as="geometry"/>
                </mxCell>
                <mxCell id="JkbfO2LJnXiNEJes6LOU-3" value="https://am-ui.azurewebsites.net/profile" style="strokeWidth=1;shadow=0;dashed=0;align=center;html=1;shape=mxgraph.mockup.containers.anchor;rSize=0;fontSize=17;fontColor=#666666;align=left;" parent="JkbfO2LJnXiNEJes6LOU-1" vertex="1">
                    <mxGeometry x="130" y="60" width="250" height="26" as="geometry"/>
                </mxCell>
                <mxCell id="JkbfO2LJnXiNEJes6LOU-5" value="" style="shape=image;verticalLabelPosition=bottom;labelBackgroundColor=default;verticalAlign=top;aspect=fixed;imageAspect=0;image=data:image/png,iVBORw0KGgoAAAANSUhEUgAAAhAAAAGJCAYAAADbgQqfAAAAAXNSR0IArs4c6QAAAARnQU1BAACxjwv8YQUAAAAJcEhZcwAAEnQAABJ0Ad5mH3gAADk1SURBVHhe7Z1tbFxVfv//77qvqr6o/lpV6oPUquqbVq3USqs+qY/WvnDFKmrkdiXcSI22uymSV1SkqbB2FQmtAVGnsA7EZcHKf5ekgNnGPMRrCCaA2eCQrAMBQ0ggGBIcSNYJOCRrkuzvf7937hmfuXPHnuO59tyZfD7SR5Dx9Tz5N+d87znnnvk/BgAAABAIAQIAAACCIUAAAABAMAQIAAAACIYAAQAAAMEQIAAAACAYAgQAAAAEQ4AAAACAYAgQAAAAEAwBAgAAAIIhQAAAAEAwBAgAAAAIhgABAAAAwRAgAAAAIBgCBAAAAARDgAAAAIBgCBAAAAAQDAECAAAAgiFAAAAAQDAECAAAAAiGAAEAAADBECAAAAAgGAIEAAAABEOAAAAAgGAIEAAAABAMAQIAAACCIUAAAABAMAQIAAAACIYAAQAAAMEQIAAAACAYAgQAAAAEQ4AAAACAYAgQAAAAEAwBAgAAAIIhQAAAAEAwBAgAAAAIhgABAAAAwRAgAAAAIBgCBAAAAARDgIDCcvnyZXvttddseHjYHnjgAfvOd74Tq//XbfqZjgHIg9nZWXviiSfsv/7rv2L1/7oNALIhQEAhOXjwoPX395dDQy11jI4FaASF0az6kkePHk2OAgAfAgQUCo0o/OAHP8hsyJdSv8NoBKyU++67L7Ou5I4dO5KjAMCHAAGFQQHAn6pwPvPMMzYzMxMfc+HCBZuenrbx8XH7z//8z4rj9LuECAhFNeXXUZaffvppcjQAOAgQUBgeffTRqoZbQeHMmTNxI3/o0KE4SOj/dZvCguap/eO1NiKI916yhx99uMqRp1+yIyfO2eVryXFVnLcje6t/r9Kn7MiF5HAoLCdOnKiooSzffffd5Ogw3pvIqosaTryX/FYzuWgnnhspPZ+9R6IqX5rWe31m5w4/lTynl6wYz6h1IUBAIXj11VerGm2FB4WK7du3x8HgySefrBiJcKRDhO6rbqYeqvjdKm+/23Y+955dSQ5f5IyNbc84vsJ7bezD5HAoLFNTUxl/u0q1RmIlHNmdfX+Z7j6S/NYq4cJyjWBw5cwhe9iv6e1jUZUvTSu9Prvwlo0N+euqHrJVfkZtDwECCoFCgt/YfO9737MPPvgg/pkWSWoaw5/K0OiDP13hhwjdV924ALHtIdv/yiE75HzuKdt5353l+7x7z1tWOTmyGCAGH/d+r8LX7RQzKoXnlVdeKf+da3n48OHk6DDOn0jVxHMPWX98n/320HOpn51Y7ny/QVytVwWDi3bi6Qes//bSa+3vT+q+jgDRGq9Pow4P273l1+dCBAGiUQgQ0HSOHTuWfKBLam2DpiiyUGhwP9NIg35XoxS6zb8P3V4XSzQ64vzhxQbx4aN+GlgMEA9NJTdBS/L222+X66aWmubIhQ/H7N74PpswOlWz1o/YQ7p92wM2duy8nXr63hrH1UEhX1/yWb39Xnv4lTN2xR1HgGgYAgQ0nfQURK3w4EhftulGLzRq4e5D91kXywQI8d6Td5eOuX+/NzRKgGgX1nQRZV0d7BU788rDNnjX4uPfefcDNqLOLznC5/yx/fbQ4OJo2Xduv9MGd++3ExeTA1xAqNJ1oK/b2KOH7Fyy3ufMqgeItX59Z+ylPWOLxxMgcoMAAU3Hv2yzno5fDf4LL7wQ/7/ChPtd/6oM3Wdd1BEgFhvFnfZyeRBiFQLE5agh9BpV350Hyq0lrAJ33XVX5vsuVVe5sWwHe9GO7E6G2KOOsn9bf+Ri59n/6OsVU2kXo/otjZBFnfDgTnv40Z12752lf3/nvjE7FYeC121E9+Nqq3y/I9FPqlndANH819dQgOAzWgEBApqO/yF0wWA5FCK0JsIfdfDVPGdd1BMg7C17LG40+u2p8mL8xQCx88fn7fyFDC9mnU8tzbnnBsuvoexKGnII4sUXX6x+3xP1s9xYpoO9HNXjnfp5/0N2yL+C5+OXbWe/fu9ue6p86cA5e/a+0nOs6LyunbIx3X57vz32qleDddX66gaIIry+hgJEBJ/RRQgQ0HT8D2K9AcKhEOH/vm9d1NXoZI02LN5W05WsOr8WhZW4IXXeGT0mKzFXm4sXL9rAwID3vpfUbfpZbizZwZ63/feX/uaPvZHc5OE6rjt/+FZyi6vB7OOraHqAKMbrazRA8BldhAABTWfxg7h4BYVGGJbbFEo/X2q767qoq9GJzni+W7rPh8u7Gi8GiLsfSK5zT7vC694vHthZfg1ad3EuuR3yRfWj0QVdHizm5uYqptP0/7pNaGpNxy5Xk8uyZAfr5vIHbWQydQWDfDw58/XW4rz1w8XpgHt3PmX7Xz1hZ2qNfDU9QBTj9TUcICL4jJYgQEDT8RvttEstqEwvvvTNdQ3EtUNJw3evPftxcpsXIHJfRHntPXvqbt333d6UCeSJgoC/66m/d8g777xTcdWFv0dJw7ud1tXBLqNfq9fO2aFHkw7f965Be/hwqlsrTIBYxlV+fXkECD6jJQgQ0HSWCgK1NoXSfhBZxzvzvArj8mRytrHtKW/nulUMEBGaK+7f+bKxdHJ1yAqtuk2XdCq0Sv1/reNWzMfP1tHBPmD7P8xYU+P8NCPALFy0MyeO2P69D9kDcccmU5cer0WAaIHXl0uAiOAzSoCAApDeB8JXUxT+rpMO/6wwy7z2gbCLUaOXzHfevdefkljdAKH54vOl0XPImeVqpx5rBdvlcZ1oVgcbOOfvqNpu/aIdeii5suFR7zqEtQgQLfD68goQfEYJEFAQ0jtR+mYtrNQIhC6vyzpDXNFOlOlG59plO/fmmD2wLbnf/sfsrYqGbLUDBKwWta7cCVFTGStjqQ7WW+F/35i9t5DcGJNc/nj7nVGQTaZXzr1kD+iSxtt32ssVp8GLHWz/k17odbW+bcROVHXKi6xegCjG68svQAABAgrBUmeFutLCR3PQ+m4MDTNnLaIMOjssNyZL+N3H7PWqQZDFAPGdu3TNebYjIWdasOqoZqr+vit0qfU5tVm6gy1foqhjbr/XdsYLcr1h+4rO9KK9vNM7ds+Y7X96xB663y08vNee9R/jQtQhJ9s5xzU7GHXiyY98VjNAFOH1ESDygwABhSHr2zilQoLfWLuwodXz6WN1H0HUChDajGZwpz31yqka38jpBYglZHSiWCy3diZE970sYSzTwYpk4eCdrjNMvPO+h+1QeRFvwlLHnqm+WuHiGyPl74TQ1RD7q2cHVzdAiCa/PgJEfhAgoDBoZKHW8LKGjNVga2FbrUs39bsNX2YHbU3zA0QA1y7bxWRh4cWK4f4M/GPr+Ahc/rS+41aVdn991wEECCgUCgBZ6xqWU79DeIDlUI1k1c9KpN7geocAAYVE33Hhf7dFLXVM+su1AJZiqd1L6zW9LgfgeoQAAYVFZ3ha76B1Df7Uhv5ft+lnnAXCStCVPX4gCDF0u3WAdoUAAQAAAMEQIAAAACAYAgQAAAAEQ4AAAACAYAgQAAAAEAwBAgAAAIIhQAAAAEAwBAgAAAAIhgABAAAAwRAgAAAAIBgCBAAAAARDgACAtuPnP/854pp7vUGAAIC2IqthR1wrrycIEADQcmQ13IhFt90gQABAS5DVIId47do1xNzMqrEQ2wECBAAUnqwG2DergUdstlm16tvqECAAoLBkNbq+WY321atXEZtmVk1m1a5vq0KAAIBCktXQynTjnG7Ar1y5kunnn3+OmJtZNSbT9Ziu16yalq0IAQIACkdWAyv9htg10H7j7TfwCwsLKD/5xK4884xd+e537Wpvr13r6LBrf/7ni3Z3x7df+f73beGjj7LvA5fVrz2/JrOCRFZty1aDAAEAhSKrYfUb33RwSAeGn/3sZ7GXL1+u8NKlS23tz/bvt5/96Ef2+Z132pVbb7Wrf/u39vNf//WolY+a+QAVKj6/5x67/OabmY+DJdP15eouHShCg0QrEVUMAEAxyGpQlwoO6cDgGvfPPvss9uLFixXOz8+3pJf27o1d+I//iL3y939vV//sz+zqH/1RVQCo6Re+UPqdyIWbb47v5/N//df439d+7dcyf+fab/92/Fg69tIPf2ifHT6c+fyuN9N15erNDxd+oFgqSGTVfKsQVQkAQPPJakizwoMfHFxo8MOCGvhPP/009pNPPrELFy5kev78+ab46cGDNv/EE2U/277dLv/7v5e98qd/WvIP/7CqQ6/Xq7/7u/b5X/91fH8Xh4ftk1dfzXwuvjpGz0WPnXWfvnpu7v5jv/3t8uvR68u6/1Y3q4akaszVmx8uXKBwYcIPEu0SIqJqAABoPukGdKnwkA4OflhQYz83Nxf705/+1M6dO1f27NmzuXvu1Cm7sGdP7MXbbrPPbrkl9vM/+ZOyWZ3wSrz2f/9v+T4v/cu/xI+jx3SPn/X8VuJP33jDPv3v/7ZLPT3xY+lxs55PLX/+C79Qfo66H91f1uO0qn5NqcZcvbmg4UJFOkiEhIhWIPprAwA0l3TjWSs8uFGHdHBwocGFhI8//tg++ugjO3PmTOzs7Gzshx9+2LAfv/CCzf/bv9nP/vIv7eqv/mpV57kS1UEv/PEfl9X9y0+2brVzw8N29plnMp/LWjp78mT8XC7cfnv59eu5Xvmt38p8TWl13Gfd3Xb+vvvi+8p6jFbR1ZOrL9Waas6FCxcm0kHCjUa0S4iI/rIAAM0j3WjK5cKDhorTwUENuBpzNfCnT5+2U6dO2QcffGDvv/9+7MzMTOx7770X7MyxY3burrvs89/8zaqOMe3P/uAP7PKXvhR74ZvfLHvmf/6n7KmJiczHaXX1Pun1ndfUyd/9Xc33SyMU+rmOzbqfIuvqyNWVaky1pppT7akGVYvpIKGaXS5EZH0Wikz01wQAaB7pBtOdjS0XHlxw0NmfzgbVgKsxV+N+MjrDfffdd+2dd96xEydO2PHjx+3tt9+OPRZ1cvX67vi4XfjHf7Rrv/iLFR3glV/+ZZv/m7+xczfdZKe+9z17b8+ezN/HY/bOSy/Zh/39NvdP/2SXf//3K95Hqffx5Oho5u8WUVdHqinVlmpMtaaaU+2pBlWLqknVpgsSy4UIV/fpz0ORif6CAADNw28ss8KDW/PgwoPmmNUga7hYZ3tqrHUmqLNDNeZq2NXQv/XWWzY9PW1vvPGGvf7663b06NHY1157rcJXX321yuPf/7598ld/VdXZffZ7v2czd9yR+TtYn288+6yd6u21hV/5lfL7qhEJ3ZZ1fLNN14urI9WUaks1plpTzan2VIOqRdWkalM1qlpVzap2/RCRXhORFSKKDAECAJqG31DKdIBIhwc38uDmmvWzXBvZqSmzL3+53LHF/tIvmX3962ZvvpkcBLkxNFR6f917vWFD8oPWRLWoOtVIhIKE/qvpDY1GuBCRHolQjbfqKET0FwMAaA7phtIPD27qQivYtQgtHR5ybVijBj7uvPzg8MUvmm3bZnb+fHIQrAp677/0pcX3/StfsahnTX7Ymqg2NQqhKQ79V9Ma6RChmlZtZ01l+J+JXOs8Z6K/FgBAc/AbSXf2lTX6oJXsWoym4KAhYd2eG319lWfB+n8FhxbvxFoOP8BpFKjF33+FhDfffDOe1lCI0EiEalc1rFpWTdc7ClFUCBAA0DT8RtI1nEuNPmhRmuaVc2lUNbLgn/l+4QtmW7Yw4tBMvv3txb9Hi09nqJa1ZkIhQiMRms5Q7aqGlxqFIEAAACyD30BKNZpZow+aL3ajDxoG1uK0XNBQueusdMZ78mTyA2gq3/zm4t9FgaKF+clPfhIvuNQiS62JUO2qht0oxFJrIdKfjyJCgACANSfdOLqzrnSA8EcfdG29zuA0HNwwmnfXiIM6KS2QbBQtsHzuObP77ivdNzSGC3f6G2lha4syOTkZPf2p+GoNXfqp2lUNq5b9UYh6pjFk0SBAAMCak24Y/QChoVw1pm76Qpe+ubUPWoymM7mG0boH10GFdvgHDpjt3l06O/6Lv1gMIs4WH3ovBPqbaBGr3k/tHdGivPTSS/bKK6/El4NqKkO1qxp2ayFU224aQzWv2idAAAAsQbphTAcIt/7BTV9o9bp2+dM8shalNYxb+6Cpi+XQyILWRvjrJWqpBZi6NBEaRyHNva8tOgrx/PPP28svvxxPZWgUQrWrGlYtq6bdNIa/DoIAAQCwBOmG0YUHDeG6AOGuvvCnL7TbnzbsaQgtknQdU63OXushNBfvzoKz/I3fKA2164oNhQzIl8uXF9//f/iH5MbWYnx8PB6FOHToULwWQrWrGvanMdzVGP5CShci0p+TohH9ZQAA1pZ0w+gHCLf+wQ8QWrmuy+C0ZbAWpDWEf2abXjipM111Vu7nTo0saGpCaxw0hQFrg7sqQ9NEChQtxjPPPGMvvviiHTx4MJ7GUO2qhlXL7mqMpS7nTH9Oikb0lwEAWFv8RlENZVaAcAso9XXJ/voHbR3cEG6/AY0gOBQk/H0IXGjQAktGF5qHFqe6v4eCX4sxNjZm+/fvj6cxtJhSteuvg1BthyykLBrRXwUAYG3xG8WlAoS/gFKXwOl6es0lN4TbNEpTFFkjDvq5znw11QHNR0FPf5cWXJw6Ojoa5c/n7Mc//nF5HYRqWLWcXkhJgAAAqAO/UawnQLj9H7QITV9itGIUGFxQSC+K1DA5G0kVD7cvhIJdi7F371579tln43UQhw8fjmtXNezvB0GAAAAIwG8UawUIrU73A4RWr+taei1GWzH+TodOdUzqpEIv54S1ITqLL/+tWuxqjCeffNL27dtnExMT5YWUqmHVsh8gVOsECACAOvAbRT9AaBW6GlF3CacaV/8SzhUFCI0oaPGjGwr3gwNTFcUn6ljLe21o/44WQgFCCykVILQfhB8g3KWcLkDUsxdE0SBAAMCa4zeK9QYI7eKny+D0/QLLosV3//u/pUWQ6Y2epDYnUscErYH7inVt3NVCPPHEE+UrMRQgVLuqYdUyAQIAYAX4jeJSAcLfRGrJAKFRBK1fSI8y+KoTUgek/2+xjui6RyNI7u/YQlNNChBPP/20vfDCC/GlnFkBwt9MigABALAMfqOYS4CotUukNiLSKITb78GtgdDx0DooNLi/qcJEi/D4448TIAAA8sRvFBsOEO57LaQu9dPUhfZu0KhEGhcg/D0goDVowdGjtg8Q5z48aYiIa+nZ0++W/fjUO7EffXDCZmeO24czb9upd9+0meNv2DtvvWrHXv+JvTE1aVMHJ2xyYtyef3Y0ab4iNLLg1jjU870W2rqaANGauL+dTO8gWlAe2vk9G/6f79uT//uIPbN3JK5d1bBqWTWt2laNq9ZV86p9fQb0WXCfC/+zkvVZaqYECERcc/1GsaEA4fYIUIioZ27c74SgtdCIkguLWu/SAihAPLr7/xEgEBHz0m8UGwoQ+jIrdSj1ftmSv6cAtB5u11CtbWmBq2gIEIiIOes3ig0FiN/5nbAzUn0RlgsQbBzVevg7iepbUAsOAQIRMWf9RrGhAOG+7rnW13Kn8VfzazSiGczP2OT4pM3MJ/9uVc5O2ciD/dbX128D+2bim+bfn7TxAzO2qi/N7QnRAqMQBAhExJz1G8WGAoQbgdDVFfXivkwrdTng1D0d1tHRYRsfKXWGtZmx4a+Vjh04nNwUwMzujfHv9uzJZwRkdk9PfH9V3rDRendP2fzV5MA8mRu33k49Rpd1b+i2/ucVGWZs1z/rsXts5EzpMDs8UPnvPGihUQgCBCJizvqNYkMBwl3aF/JNjW7PCO0P4eECRMf6QZteqtM9Omjrkk56JQHC5o/b6O5RO57TaXopQESd+N5Jmzyw6OiOTdYZPceue6IQkRybF/P7ejODwfyxUds1dnzx8VYjQAi39kUBssAQIBARc9ZvFBsKEAoB6khC9gZQ2Mj4nXKA6Oi0vomF5NY0CzZxR2dy3AoDRM6UAkR2Jz37mH620YbfT27IidJjDtiyX221WgHCXwyrdS0FhQCBiJizfqPYUIDQELY6kZCvenahI7VvRBwgegZtcEv03y2jNpfcXsHcqG2OgsPmHYPWkxUgLhy30W2brXt9FDI611n3Lf02eix1/n90yLo3bLXRs8m/z47a1g3dNnTUbGaszzZ1KaB0WtdNfTaS/t0MlgoQdmYkfp69+5L7cY91ZN6mdm62rhv0mkesPJniP//M5zBtQ9Hvl3+u/0+ee/zTB6N/3+a9d6sVILT2wU1FFfiSTgIEImLO+o1iQwFiypsP1//Xg75oS+FBO1Z6lALEiM1M9FlnjbP2mUc2RsGgzyZOljrmigAxP2UDX+2wzht7bWhM0wijNnRrd3RfXdFxXiec7lSTTn7zrb227qZ+GxmPfndsyDZH99XR2WvjmUlmkaAAkfy7p6fHOv+51wb3jNrIE8kUR83n3+mt15iz45oe2dYdPeZm25VMlxxPnqN7D8uBZLUChHCXdBZ4W3ICBCJizvqNYkMBwv+q5wa/I6Hc+V2dtsH1HbZux3TykwT/9qQjXgwQydTGVwdsyj9hj7rmybvWVa6rqBEgOnqGo8dObhOnh0ud/TKLLZcKEHNjm6Ofddsut3Fj8lidN+t1JrfFJM9/fb9NVjx/s+kdXVVBptYUxpoGCDf6pL9/Qa/GIEAgIuas3yg2FCCEvppbHYl2pWwAv/MrjzRcKv1MLPgjE+kAcWnC+qJ/9z2fsXbi5C7r7lhngy6P1AgQ5VGCMrM2/I3oOd2z9MhKqTPfZLuOzdv8BeeMTT2y1bo7o7Bw6/jilELyWFXPM3n+mWHlwrj1pp5fIQKEP/pU0K2tCRCIiDnrN4oNBwg3lN3glyxVdH7JWofFjjY5Q3drI9IBwp3Zd5XWBFR447r4aojysTUCRMV0SMysjfTUGyCi46rstI19ozbjjzTUeqyaz0GUgkzn9sXnUYgAodDgAkRBF1ISIBARc9ZvFBsOEO4bNhu8pK+y80sFhjhQeFdn1AgQG781YAPbsx13J8mrEiDSIxDztpB1KeoKA0T6eRQiQGjawgUIfftqASFAICLmrN8o5hYgGvyGzarOL97voTRlEU9p+OsY0h1uMsyfOYWRZlUCRJ2ddK3HypimKHN10vqjn216rPzOFCNACLf+pd6dSNcYAgQiYs76jWLDASKnxXRVnV+y4+S67UM2sD61Q2VVRzxno1tS6w0cJ0ZtaM+kzbr1FEUMEMnzr1rIGTH/fPVVKYUJEAqN+ts3uIB2tSBAICLmrN8oNhwgNHytTkSmLs0MoTpAuI4yuj19WWdWRzw9aF3RbV1bh23q/dI0wszhYduqSyP9qx4KGSAiys9/xKbP6PnP2vGx/nghZno3y8IECLeANmQr8zWEAIGImLN+o9hwgBCuI9HmQlqdvwKyAoRbTFm1sVSNjnj+2IhtvVGbLCl0yE7rvm2kctvqogaIiKrn37nOenZWf59GYQKE28qcANEUCRCIuOb6jWIuAUKhwe1MqP8265s2HZeWWMjYAizMt8jzJ0A0VQIEIq65fqOYS4AQfoiQBf6OBMgJpjCaKgECEddcv1HMLUAI7Q3gFtY1uC8EtADub02AaIoECERcc/1GMdcAIXbvXhyFmK1Y0QDthgsQuhKngBAgEBFz1m8Ucw8QOX4/BhQcFyDYB6IpEiAQcc31G8XcA4Rw21trjhzaF7fmhQDRFAkQiLjm+o3iqgQI7QehjkU2sDcEFBh/K+uC/o0JEIiIOes3iqsSIIRboa/vyCjo1z1DA/BlWk2XAIGIa67fKK5agPB3qNyyJbkR2gbt9eH+vnydd1MkQCDimus3iqsWIMSGDYudTEG/sRFWiP8dKAWFAIGImLN+o7iqAeL8ebMvfrHU0TCV0V64cFjghbIECETEnPUbxVUNEMJfUPmlL7FDZbvgLuH8+teTG4oHAQIRMWf9RnHVA4RQJ+NChNRohHYvZFqjNfFDYbO/92QJCBCIiDnrN4prEiCENpVy0xlpNTLxzW+W9hNghKL4+FfYFBgCBCJizvqN4poFCIe2uv7KVxZ3q6ylOil9n4aChRutWOFXhUOO+FuVF3QLawcBAhExZ/1Gcc0DhI9CgTohLchzZ7X16IIFm1StLfpuEzeKVODFkw4CBCJizvqNYlMDRBaawtB0h0YdtCW2woL/NeFp9TOFiYLuRdA26IoaF/I0etQCU00ECETEnPUbxcIFiKXQiIXChUYsNP+eDhMKHCzMzB8/PMiCT104CBCIiDnrN4otFSDSvPlmafQhvZ5Clxjqyg/N1zMy0RiatvDDg0aGWgQCBCJizvqNYksHCIfOkPv6al/lods1OqHRC4UOqA+FL7ffg2yh8CAIEIiIOes3im0RIHy0sFKjD37Hl9aNUGgoXlMejFJUkw4PLTJt4UOAQETMWb9RbLsA4aPhdwUKTXNorwk/RGSpoXot2vQvH9WohUKG7ut6QaM0fngo8GZRS0GAQETMWb9RbOsAkUZTHW6Ewp/XD1FB5MtfLoULTZsoXMh2+J4P7bOhBar+mhJt7tWiECAQEXPWbxSvqwCRhUYWFADUUSoUSHf5aD2jFml15t4qoxj+CE16/YhCRAuHB0GAQETMWb9RvO4DRD24kOH2p9AIhAKC3+GG6I9iqAPXyMhqopEFXZHih6Naa0QUJLZsaYspGwIEImLO+o0iASIH1EH7AcPvqOsdxdCUiqZW9Lvq7HV/cqntuxU83HFSCx3d42u78HqnadyiUt1HG0GAQETMWb9RJECsEVmjGFmbYa2mejx/akWLI1d79KOJECAQEXPWbxQJEE1Gl0u67wNR515rL4t6dSHBTZFoNOM6/YZTAgQiYs76jSIBosCkpyiy5BtKa0KAQETMWb9RJEBAu0KAQETMWb9RJEBAu0KAQETMWb9RJEBAu0KAQETMWb9RJEBAu0KAQETMWb9RvO4CxPyMTY5P2sx88m+opk3eIwIEImLO+o1iUQLE1D0d1tHRYRsfmUluqcWMDX+tdOzA4eSmAGZ2b4x/t2dPc3danBvbHD+PdTumk1uKQ1Heo0YhQCAi5qzfKBYtQHSsH7Tpq8mNWRwdtHU6LnIlAcLmj9vo7lE73tSz6zkb3ZK83s4Bm1rq9TaDQrxHjUOAQETMWb9RLFyA6Oi0vomF5NY0CzZxR2dy3AoDRBF4f9g26nU+sst6lny90AgECETEnPUbxUIFiJ5BG9SZ+ZbR6Bw9g7lR2xwFh807BqOONyNAXIjOnLdttu71UcjoXGfdt/Tb6LHUafTRIevesNVGzyb/PjtqWzd029BRs5mxPtvUpYDSaV039dlI+nfF1Vmb3NnrHddrQwfChvpnHtmYjDzM2khPh3XeMRFFozRzNnpbt3U/OB0FjlHru6nLOqPX3Nm1yfr2HLeKZxa/pujYTIesYpJkJe9RwtzBIev92rrkeWy2wYPRX6nGsbMHomO959y7c9JmK0ZaAl7fCiFAICLmrN8oFitAjNjMRF/UkWy04feTH3iUOt4+mzg5Uh0g5qds4KtRB3Rj1KGPTdrkgVEburU7uq+u6DivOzo8EHX8PTZyJvn3mdJ9bb6119bd1G8j49Hvjg3Z5ui+Ojp7bdxPMurwb4463hs2Wf+e8egxxm1k26boMToD1gtM2+D6xbUPpbUQ0eNciP/pUQoXHVt6rXe9e7zoNd3SFQeX3n3eEzs5bgPbByq9p9e61SHfPBLdU8JK36OI2T098evsvnXIRg9M2vieftt0Q/R792yteeymbSM2Xj42eS7lEBHw+lYIAQIRMWf9RrFoAWL2amUHW8a/Pen0FwNEMrXx1eisvuLUdd4m71pXua6iRoDo6BmuPEM+PRzf7geDUoCJfvd0ckPC7GM90X1uttF6+rx4Dcc6Gzya/NuNqoylfznpYKPnOuw/XhRihnW73qvkpmrmo/cz6ogrAlAD79GFcdva2WFd90xVjgzMT1hfdHvFscn0TFWgSt7PxdfZyOurDwIEImLO+o1i4QJE9P/lkYZLpZ+JBX9kIh0gLkUdWfTvvucz1hKc3BWdiUcdtssjNQJE776KrjEi6si+ET2nqNMsMWO7NnRY9w8yrhJJHr/6PqqZuifqxNVZJ/9WBz5+a/Q4VdM2SQd763hlpx0x+9im6DVEQSD5d5r55/VepUYVGniP5vf1Rv/ODkjT90fhwzt25gfd1rFhV/RupYkCTJ//elb++uqFAIGImLN+o1jEAOHOyhc7u+Ts2XWy6QCR/LuzKz3/H3ljac6+fGyNAFExHRKTdHDlADFlA3qM9RmPsaE0f7/sNIY6cZ3J3x+dyV+YLzu7Vx10etom/fiLaIqgZgd7Ono90WNsTAedBt6jpR5vIQor/rHx31FrK9KPEdl1g/c3XunrC4AAgYiYs36jWMgAkQ4McaDwrlaoESA2fiu1DsBz/GRybIMBYt3N/Zn3L4ePLD0CURpFie6zhpV7YKygg3VrHCrWGiQ08B4FB4j1Pdafcf+xj7hpEAJEoxIgEHHN9RvFYgaIiHitQOmsPJ7S8Ofo053+hXHrjf6dOTyfZsUBorQGI3MKoy6SqYqvDdm0N/pQctbG+9JTG6Ed7LxN6D6q1jgkNPAehUxhxP/OnMJIQ4BoVAIEIq65fqNY2ACR7Di5bvuQDUQdd8XZeVWnX9qYqfPW8dQ6gogToza0Z9Jm3XqKFQeIqHPcEXWOX/WCjGNu0nZp46WMDrZMMi1Tc5ojel6d/uLKwA5Wt1Wte6iggfdoLgofWYsoo1BStYgyDn5di+spyszZ5O5dNnrCPToBolEJEIi45vqNYnEDhOtI1EGl1gdkdfrTg9YV3da1ddim3i+d2c8cHrat6SH9BgKE60g7vzFg4ydm48eYPTFuA99Y4sw/ofRavMdNU3X1Sf0d7MKRgfi1r/vWLps4oMszfacWg8FK36OI2Sc2x9MvnTf1laYitvXaxhs2Wl+fFjz6x87Z+K3R+9G5yQbGj9usRljOHLfx7brc1Q84BIhGJUAg4prrN4pFDhDurL3qCoUanf78sRHbemPUeel3Yjut+7aRyi2ZGwkQ4uykDd7kP4Y61UGbTG2kVEny/R21NshKiEc4ylef1N/BLgatLCuDwIreo4T5Y6M2+K1NpUWRyQZUmcHo6pxN7lBg8J7HDZtKG0+VIUA0KgECEddcv1EsSoDIlUuls+uF9FRDniyUHmO+jiUFhSSn96jU2WdthBVxdaH0HjXpTSJAICLmrN8otmWAgHy5Om/HH9lqAwdSczTR7dWLP4sDAQIRMWf9RpEAAcuT7GzZ0Wmb+nYlW1kPWV88lbPUws3mQoBARMxZv1EkQEC9lL4ga3FjqM1RmBg/WczwIAgQiIg56zeKBAhoVwgQiIg56zeKBAhoVwgQiIg56zeKBAhoVwgQiIg56zeKBAhoVwgQiIg56zeKBAhoVwgQiIg56zeKBAhoVwgQiIg56zeKBAhoVwgQiIg56zeKBAhoVwgQiIg56zeKBAhoVwgQiIg56zeKBAhoVwgQiIg56zeKBAhoVwgQiIg56zeKBAhoVwgQiIg56zeKBAhoVwgQiIg56zeKBAhoVwgQiIg56zeKBAhoVwgQiIg56zeKBAhoVwgQiIg56zeKBAhoVwgQiIg56zeKBAhoVwgQiIg56zeKBAhoVwgQiIg56zeKBAhoVwgQiIg56zeKBAhoVwgQiIg56zeKBAhoVwgQiIg56zeKBAhoVwgQiIg56zeKBAhoVwgQiIg56zeKBAhoVwgQiIg56zeKBAhoVwgQiIg56zeKBAhoVwgQiIg56zeKBAhoVwgQiIg56zeKBAhoVwgQiIg56zeKBAhoVwgQiIg56zeKhQwQc6O2uaPDOtYP2vTV5LZVZdZGeqLHu2cq+Te0AwQIRMSc9RvFIgaIubHN1qEA0dFpA4eTG1cVAkQ7QoBARMxZv1EsXoCYseGvdVjnHcO2K+rUO++YsIXkJ6sHAaIdIUAgIuas3ygWLkC8P2wbk5GH2T091tHZZxOXkp+VmbPR27qt+8Hp5N+LTD8Y3X7baHSEx4XjNrpts3Wv74xHNbpu6rORY/PJD0WNAHF11iZ39tqmrtLvrbtxsw0emE1+mOLspA19a6Ot64zu54Yu27xj0uauTtvQhm7bOlbxbIKOnT82av23dMfHdq7vts3bRu34heSHCe41z16YsiH/2Ph+k4OuQwgQiIg56zeKRQsQ0/evW1z7kKyF6N3nd/ai9ojB1D3R7T0j0REJl6Zs4KtRh3rjVhsen7TJA+M2HIWPzo6NtutkckzW/UXhYeTmKDjcsMn694zHvzeybVP0ex3WFR1X8YxOj1iPOu0be21oLHqM8RHrvykKKvcM2Nbo+J49XugIOHb+8IB1RcGl+9YhGz0QHTs2ZL03Rs/pqwM25T2B+DV/ozf6Wbf17ow6ST3Xu5Lnen91yLpeIEAgIuas3ygWKkBEZ+GD6zts3Q7X6c3Z6Jaoc9ySGlEICRAH+62jY5MNn07+HTNnEw8O2si064Wr72/mkY3R7/Wkfk/rM3qjjrnLBsv98ryNb63u1HX7RJ9GLvxQEHDspQnri4JGVViZn7T+ivcoec0d66z/oH/kvE3eFYWxzuixrtNRiLYPEJcuXTJExLX0s88+K3vx4sXY+fl5++STT+zChQv205/+1D7++GObnZ21Dz74wN59911766237NVXX7WDBw8mzfMqEJ1xd0Yd4WLnHHWD+3qjznGzjVYkiIAAcaR0n/0HKrrhFOn7m7FdGzqsM+P+zZKQ487sL4xbb9Txb05PU4jpQVvnh4KAYxee74ted9b0TfTsftBdGqVJ/h2/Zu/fZeLw1GMjZ5J/X2cMDw/b448/bs8884y9+OKLce2qhlXLqmnVtmpcta6aV+3rM6DPgvtc+J+VrM9SMyVAIOKa6zeKxQkQCzZxh87OB23qwrzNO0+Pxp3uxkdmkuNEQIDQVMSW0tl9Z9dm63twxCZPzNlCxVl5+v6mbMDv+FNM3hUde/NIaVTkzIj1RMdmXi2iUQT/fgKOjdd/aL3Ghm7rThuv5RiInmWJqtfsiAIZAYIAgYiYm36jWJgAkQzZly7fzPBrw7YYIQIChLi6YLOHR2yob7N1xwsiS2sixsvTE2EBouIxVjVAbLTe7QM2kOl4+f0gQGRDgEBEzFm/USxKgChNVWy0oWlv9CFxdl9famoj6fDvmkz+vUjNztTnzLj1rY+O63OXiKYDRGqaooJZG/6G99irNIVRej+ypzDSECCyIUAgIuas3ygWI0AkiyVrdfxXp2ygs3LhYDyNkN6pMllg6N/P3NERG3pwInW/CzbR5x9XPaIxvUNXg/TbZHrpxMld8WWmfRNud4o5G79VUy+phZFX5228ahFlwLHxFSid1ruvOmwcHxuykYOz5f0xCBDZECAQEXPWbxQLESCSof3FjraaUoe+GBgWJjQq0WGdNw16lzhuso1fSwWI6Ey+M+qIex6cspl4RGPWpvdsta6Kx8uYEpkbt15dbvmNAZt8vzQSMnN4yDbfEN12c3T/fnA5PRLfrks+++LphX7r/edO29jXZ5vSryvg2On7u6IA0GVbH3HPfcamHtFzj16PdxwBIhsCBCJizvqNYhECROmSyfSVFimOaojfP/Oft+OP9JY2Y4o6XnXIgwfnbLKqM42OiwJDt7++onOd9eycsvlyCMgIEOLspA3eVBoZKKmOftRmKhZgJmizqh29tile6LjZ+seO23ytYFT3sVnPvdu27omOT44QBIhsCBCIiDnrN4pFCBCNsjBfx2bXVxfKayoqr8Cog0sr/L0kFFRvhJXBMscuxM+9jtcJZQgQiIg56zeK7RAgms38sWHbun3SG9EoMT+eXvwZdiw0BgECETFn/UaRANE4pS2ntR6jz3Yl21MP9WVvex1yLDQGAQIRMWf9RpEAkRNn9AVZmxY3e7olCgjjM1UjDTEhx8KKIUAgIuas3ygSIKBdIUAgIuas3ygSIKBdIUAgIuas3ygSIKBdIUAgIuas3ygSIKBdIUAgIuas3ygSIKBdIUAgIuas3ygSIKBdUYB44oknCBCIiHnpN4qhAeKVV15JmmeAYpMOEKpdAgQiYgP6jSIBAtoVAgQiYs76jSIBAtqVxx57jACBiJinfqO4VIA4c+YMAQJaFgWIJ5980vbt22cTExOZAUI1ToBARKxTv1GsN0AcO3bMXnvtNTt06FDSPAMUmx/+8IdxgHj22WfjAKHaVQ2rlgkQiIgr0G8U/QDx6aefxo3o3NxcOUCcOnXKTp48SYCAlkMB4qmnnooDxEsvvVQRIFTTqm0XIFTzqn19BggQiIg19BvFWgHi7NmzFQHi7bfftqNHj9rhw4eT5hmg2OzZs8f27t1r4+Pj9uMf/ziuXdWwatkPEKp1AgQiYh36jWI9AeK9996LG93XX3+dAAEtw8jIiP3oRz+y5557zg4cOBDXrmpYtayaJkAgIgbqN4rLBYjTp0/Hje3x48ftjTfesJ/85CdJ8wxQbLQL5djYmD3//PP28ssvx7WrGlYtq6ZV2wQIRMQA/UZRZgWIc+fO2UcffWQffvihzczM2IkTJ2x6etqOHDmSNM8AxcZdgeF2oVTtqoZVy6pp1bZqXLWeFSDSn5Osz1IzJUAg4pqbbhj9AKFV6OfPn68IEO+//76988479uabb8aXwQG0AqOjo/H6B7eAUrWrGlYtq6b9AKGaV+0TIBARlzDdMKqxdCHCBQh3Kae/mZRWr2sR2rVr15ImGqCYXL161Z5++ul4+sKtf1Dt+pdw+ptIuQDhwgMBAhExw3TDmA4QGspVo5peSOnWQejnAEVGIwsafdD+D5q+mJqaqlj/4C+grGcPCJn1WWqmBAhEXHPTDaMfIPx1EC5A+NMY2sVPjTCjEFBUNPowOTlpL7zwQrx4UqMP2v9BtetPX4QsoJRZn6VmSoBAxKaYbhyzAoTmht00hs7Y3H4QOpPTULCGfQkSUBQUHDTyoPDgpi609kGLJ1Wz/v4PbvqiVRdQSgIEIjZNv4F0Z11qRP11EP4ohFau6wxO4UHX02tYWN8voIZaZ3saMta8sxavaQdAXUana/G1oY92BZT6fgKpb0pErFdXN66OVFOqLdWYak01p9pTDaoWVZOqTdWoalU1q9p1V1/40xf+Akr3OfA/G1mfnSJIgEDEpuk3kq7hzBqF0FmdG4XQ/LEug9NwsBalqYHWWZ6GijXfrDM/NeK6fE7X4GsjH+0GqEZe6tI6fUOirzoBxLTpOlHtuDpSTam2VGOqNdWcak81qFpUTao2VaOqVdWsW/ugWnZXX9QzfZH12SmCBAhEbJp+Iyn9AFFrFEKr1zUMrHUQaph1dqchYs0za7Gazvx02ZyuvVeDrl0A1bjr+wikGnt9vTJiqKodV0eqKdWWaky1pppT7akGVYuqSdWmW7OjmlXtLjX60ErTF5IAgYhNM91QurOvrFEIzRenQ4TO6jQ0rPllLVLTGZ8ab539qSHXmaAadX0PgRp4nR1KNfiIobr6US2pplRbqjHVmmpOtacaVC26dTqq0XR4WGrtAwECEbFO/YYyHSB0ZrZUiNCQsOaVtThNZ3pqtDVkrA17dAaorYPVqLtQITUv7avGH7GW6XpxdeTqSjWmWlPNqfZUg6pF1aRqUzW6VHhIjz6kA0TWZ6YoEiAQsan6jaXMChEa5s0KEZpP1qI0neGpsdZQsc76tNuftgxWY65hZDXsOiuUaugRV6qrI9WUaks1plpTzan2VIOqRdWkalM1mhUesqYu0uFBZn1miiIBAhGbarrBlC5ALBcitBjNBQldW6+zPe3ypwZcQ8dqzHUmKNW4S50dIq5UV0eurlRjqjXVnGpPNahadMFBNbpceHABIuuzkPWZKYoECERsuulG052NLRUitAhNK9nTQULDxWrAdfanxlzqbFCqgUdsVFdPrr5Ua6o51V46OKhGVavLhYesAJH1WSmSBAhELITpxrNWiHBrIrSCPR0k/DAh9XXJatCdauARG9WvKdWYqzcXGtLBQbWqmk2veWjl8CAJEIhYCNMNqFwqRLjRCD9ISA0Vq/H2Q0WWauwR6zWrhpyu3lR7rg794KBaDQkPMuszUjQJEIhYGLMa0qwQkQ4SfphwgcIPFU418IiNmq4rV2+u/lxoSAeHdgoPkgCBiIUyq0F1jW2tIOHCRDpQ+LrGHTEP0/XlBwYXGpYKDjKr1rM+E0WVAIGIhTOrYZV+45sOEn6Y8AMF4lro155fk/UGB5n1WSiyBAhELKRZDaz0G2LpGmin33j7+g08YqNm1ZhM12O6XrNqWmZ9BoouAQIRC2tWQ+ubbpxlugFHXEuzajKrdn2zar8VJEAgYuHNanR9sxptxGabVau+WbXeShIgELElzGqAQ8xq4BFXalaNhZhV460mAQIRW86sBhmx6GbVcitLgEDEtjKr4UZcK7Nqsl0lQCBi25nVsCOutlm12M4SIBARETFYAgQiIiIGS4BARETEYAkQiIiIGCwBAhEREYMlQCAiImKwBAhEREQMlgCBiIiIwRIgEBERMVgCBCIiIgZLgEBERMRgCRCIiIgYLAECERERgyVAICIiYrAECERERAyWAIGIiIjBEiAQERExWAIEIiIiBkuAQERExGAJEIiIiBgsAQIRERGDJUAgIiJisAQIREREDJYAgYiIiMESIBARETFYAgQiIiIGS4BARETEYAkQiIiIGCwBAhEREYMlQCAiImKwBAhEREQMlgCBiIiIwRIgEBERMVgCBCIiIgZLgEBERMRgCRCIiIgYLAECERERgyVAICIiYrAECERERAyWAIGIiIjBEiAQERExWAIEIiIiBkuAQERExGAJEIiIiBgsAQIRERGDJUAgIiJisAQIREREDJYAgYiIiMESIBARETFYAgQiIiIGS4BARETEYAkQiIiIGCwBAhEREYMlQCAiImKwBAhEREQMlgCBiIiIwRIgEBERMVgCBCIiIgZLgEBERMRgCRCIiIgYLAECERERgyVAICIiYrAECERERAyWAIGIiIjBEiAQERExWAIEIiIiBkuAQERExGAJEIiIiBgsAQIRERGDJUAgIiJisAQIREREDJYAgYiIiMESIBARETFYAgQiIiIGS4BARETEYAkQiIiIGCwBAhEREYMlQCAiImKwBAhEREQMlgCBiIiIwRIgEBERMVgCBCIiIgZLgEBERMRgCRCIiIgYLAECERERgyVAICIiYrAECERERAyWAIGIiIjBEiAQERExWAIEIiIiBkuAQERExGAJEIiIiBgsAQIRERGDJUAgIiJisAQIREREDJYAgYiIiMESIBARETFYAgQiIiIGS4BARETEYAkQiIiIGCwBAhEREYMlQCAiImKwBAhEREQMlgCBiIiIwRIgEBERMVgCBCIiIgZLgEBERMRgCRCIiIgYLAECERERgyVAICIiYrAECERERAyWAIGIiIjBEiAQERExWAIEIiIiBkuAQERExGAJEIiIiBgsAQIRERGDJUAgIiJisAQIREREDJYAgYiIiMESIBARETFYAgQiIiIGS4BARETEYAkQiIiIGCwBAhEREYMlQCAiImKwBAhEREQMlgCBiIiIgV6y/w87SAEdmpk/IgAAAABJRU5ErkJggg==;clipPath=inset(7.4% 0.67% 35.65% 29.33%);" parent="JkbfO2LJnXiNEJes6LOU-1" vertex="1">
                    <mxGeometry x="560" y="110" width="180" height="108.86" as="geometry"/>
                </mxCell>
                <mxCell id="JkbfO2LJnXiNEJes6LOU-7" value="&lt;font style=&quot;font-size: 14px;&quot;&gt;Test1&lt;/font&gt;" style="strokeWidth=1;shadow=0;dashed=0;align=center;html=1;shape=mxgraph.mockup.text.textBox;fontColor=#666666;align=left;fontSize=17;spacingLeft=4;spacingTop=-3;strokeColor=#666666;mainText=" parent="JkbfO2LJnXiNEJes6LOU-1" vertex="1">
                    <mxGeometry x="43" y="200" width="150" height="30" as="geometry"/>
                </mxCell>
                <mxCell id="JkbfO2LJnXiNEJes6LOU-8" value="&lt;font style=&quot;font-size: 14px;&quot;&gt;test1@test1.ch&lt;/font&gt;" style="strokeWidth=1;shadow=0;dashed=0;align=center;html=1;shape=mxgraph.mockup.text.textBox;fontColor=#666666;align=left;fontSize=17;spacingLeft=4;spacingTop=-3;strokeColor=#666666;mainText=" parent="JkbfO2LJnXiNEJes6LOU-1" vertex="1">
                    <mxGeometry x="43" y="340" width="150" height="30" as="geometry"/>
                </mxCell>
                <mxCell id="JkbfO2LJnXiNEJes6LOU-9" value="&lt;font style=&quot;font-size: 14px;&quot;&gt;+41 77 888 22 11&lt;/font&gt;" style="strokeWidth=1;shadow=0;dashed=0;align=center;html=1;shape=mxgraph.mockup.text.textBox;fontColor=#666666;align=left;fontSize=17;spacingLeft=4;spacingTop=-3;strokeColor=#666666;mainText=" parent="JkbfO2LJnXiNEJes6LOU-1" vertex="1">
                    <mxGeometry x="43" y="420" width="150" height="30" as="geometry"/>
                </mxCell>
                <mxCell id="JkbfO2LJnXiNEJes6LOU-10" value="&lt;font style=&quot;font-size: 14px;&quot;&gt;First Name&lt;/font&gt;" style="text;html=1;resizable=0;autosize=1;align=left;verticalAlign=middle;points=[];fillColor=none;strokeColor=none;rounded=0;shadow=0;" parent="JkbfO2LJnXiNEJes6LOU-1" vertex="1">
                    <mxGeometry x="43" y="170" width="90" height="30" as="geometry"/>
                </mxCell>
                <mxCell id="JkbfO2LJnXiNEJes6LOU-19" value="&lt;font style=&quot;font-size: 14px;&quot;&gt;Test1&lt;/font&gt;" style="strokeWidth=1;shadow=0;dashed=0;align=center;html=1;shape=mxgraph.mockup.text.textBox;fontColor=#666666;align=left;fontSize=17;spacingLeft=4;spacingTop=-3;strokeColor=#666666;mainText=" parent="JkbfO2LJnXiNEJes6LOU-1" vertex="1">
                    <mxGeometry x="43" y="270" width="150" height="30" as="geometry"/>
                </mxCell>
                <mxCell id="JkbfO2LJnXiNEJes6LOU-20" value="Save" style="strokeWidth=1;shadow=0;dashed=0;align=center;html=1;shape=mxgraph.mockup.buttons.button;strokeColor=#666666;fontColor=#ffffff;mainText=;buttonStyle=round;fontSize=12;fontStyle=1;fillColor=#00CC00;whiteSpace=wrap;" parent="JkbfO2LJnXiNEJes6LOU-1" vertex="1">
                    <mxGeometry x="43" y="480" width="144" height="40" as="geometry"/>
                </mxCell>
                <mxCell id="JkbfO2LJnXiNEJes6LOU-23" value="&lt;font style=&quot;font-size: 14px;&quot;&gt;E-Mail&lt;/font&gt;" style="text;html=1;resizable=0;autosize=1;align=left;verticalAlign=middle;points=[];fillColor=none;strokeColor=none;rounded=0;shadow=0;" parent="JkbfO2LJnXiNEJes6LOU-1" vertex="1">
                    <mxGeometry x="43" y="315" width="60" height="30" as="geometry"/>
                </mxCell>
                <mxCell id="JkbfO2LJnXiNEJes6LOU-22" value="&lt;font style=&quot;font-size: 14px;&quot;&gt;Last Name&lt;/font&gt;" style="text;html=1;resizable=0;autosize=1;align=left;verticalAlign=middle;points=[];fillColor=none;strokeColor=none;rounded=0;shadow=0;" parent="JkbfO2LJnXiNEJes6LOU-1" vertex="1">
                    <mxGeometry x="43" y="240" width="90" height="30" as="geometry"/>
                </mxCell>
                <mxCell id="JkbfO2LJnXiNEJes6LOU-21" value="&lt;font style=&quot;font-size: 14px;&quot;&gt;Phone Number&lt;/font&gt;" style="text;html=1;resizable=0;autosize=1;align=left;verticalAlign=middle;points=[];fillColor=none;strokeColor=none;rounded=0;shadow=0;" parent="JkbfO2LJnXiNEJes6LOU-1" vertex="1">
                    <mxGeometry x="43" y="390" width="120" height="30" as="geometry"/>
                </mxCell>
                <mxCell id="20kPdooow2g-97pBICo2-2" value="&lt;font style=&quot;font-size: 18px;&quot;&gt;Mein Profil&lt;/font&gt;" style="text;html=1;strokeColor=none;fillColor=none;align=left;verticalAlign=middle;whiteSpace=wrap;rounded=0;shadow=0;" parent="JkbfO2LJnXiNEJes6LOU-1" vertex="1">
                    <mxGeometry x="43" y="110" width="164" height="60" as="geometry"/>
                </mxCell>
            </root>
        </mxGraphModel>
    </diagram>
    <diagram id="AGcu-qI1a3Pw0tQUH3SQ" name="Mein-Profil_Delete">
        <mxGraphModel dx="1598" dy="695" grid="1" gridSize="10" guides="1" tooltips="1" connect="1" arrows="1" fold="1" page="1" pageScale="1" pageWidth="827" pageHeight="1169" math="0" shadow="0">
            <root>
                <mxCell id="0"/>
                <mxCell id="1" parent="0"/>
                <mxCell id="082rzm5pcQB5HZsoXUOI-1" value="" style="strokeWidth=1;shadow=0;dashed=0;align=center;html=1;shape=mxgraph.mockup.containers.browserWindow;rSize=0;strokeColor=#666666;strokeColor2=#008cff;strokeColor3=#c4c4c4;mainText=,;recursiveResize=0;" vertex="1" parent="1">
                    <mxGeometry x="44" y="320" width="740" height="550" as="geometry"/>
                </mxCell>
                <mxCell id="082rzm5pcQB5HZsoXUOI-2" value="Mein Profil" style="strokeWidth=1;shadow=0;dashed=0;align=center;html=1;shape=mxgraph.mockup.containers.anchor;fontSize=17;fontColor=#666666;align=left;" vertex="1" parent="082rzm5pcQB5HZsoXUOI-1">
                    <mxGeometry x="60" y="12" width="110" height="26" as="geometry"/>
                </mxCell>
                <mxCell id="082rzm5pcQB5HZsoXUOI-3" value="https://am-ui.azurewebsites.net/profile" style="strokeWidth=1;shadow=0;dashed=0;align=center;html=1;shape=mxgraph.mockup.containers.anchor;rSize=0;fontSize=17;fontColor=#666666;align=left;" vertex="1" parent="082rzm5pcQB5HZsoXUOI-1">
                    <mxGeometry x="130" y="60" width="250" height="26" as="geometry"/>
                </mxCell>
                <mxCell id="082rzm5pcQB5HZsoXUOI-4" value="" style="shape=image;verticalLabelPosition=bottom;labelBackgroundColor=default;verticalAlign=top;aspect=fixed;imageAspect=0;image=data:image/png,iVBORw0KGgoAAAANSUhEUgAAAhAAAAGJCAYAAADbgQqfAAAAAXNSR0IArs4c6QAAAARnQU1BAACxjwv8YQUAAAAJcEhZcwAAEnQAABJ0Ad5mH3gAADk1SURBVHhe7Z1tbFxVfv//77qvqr6o/lpV6oPUquqbVq3USqs+qY/WvnDFKmrkdiXcSI22uymSV1SkqbB2FQmtAVGnsA7EZcHKf5ekgNnGPMRrCCaA2eCQrAMBQ0ggGBIcSNYJOCRrkuzvf7937hmfuXPHnuO59tyZfD7SR5Dx9Tz5N+d87znnnvk/BgAAABAIAQIAAACCIUAAAABAMAQIAAAACIYAAQAAAMEQIAAAACAYAgQAAAAEQ4AAAACAYAgQAAAAEAwBAgAAAIIhQAAAAEAwBAgAAAAIhgABAAAAwRAgAAAAIBgCBAAAAARDgAAAAIBgCBAAAAAQDAECAAAAgiFAAAAAQDAECAAAAAiGAAEAAADBECAAAAAgGAIEAAAABEOAAAAAgGAIEAAAABAMAQIAAACCIUAAAABAMAQIAAAACIYAAQAAAMEQIAAAACAYAgQAAAAEQ4AAAACAYAgQAAAAEAwBAgAAAIIhQAAAAEAwBAgAAAAIhgABAAAAwRAgAAAAIBgCBAAAAARDgIDCcvnyZXvttddseHjYHnjgAfvOd74Tq//XbfqZjgHIg9nZWXviiSfsv/7rv2L1/7oNALIhQEAhOXjwoPX395dDQy11jI4FaASF0az6kkePHk2OAgAfAgQUCo0o/OAHP8hsyJdSv8NoBKyU++67L7Ou5I4dO5KjAMCHAAGFQQHAn6pwPvPMMzYzMxMfc+HCBZuenrbx8XH7z//8z4rj9LuECAhFNeXXUZaffvppcjQAOAgQUBgeffTRqoZbQeHMmTNxI3/o0KE4SOj/dZvCguap/eO1NiKI916yhx99uMqRp1+yIyfO2eVryXFVnLcje6t/r9Kn7MiF5HAoLCdOnKiooSzffffd5Ogw3pvIqosaTryX/FYzuWgnnhspPZ+9R6IqX5rWe31m5w4/lTynl6wYz6h1IUBAIXj11VerGm2FB4WK7du3x8HgySefrBiJcKRDhO6rbqYeqvjdKm+/23Y+955dSQ5f5IyNbc84vsJ7bezD5HAoLFNTUxl/u0q1RmIlHNmdfX+Z7j6S/NYq4cJyjWBw5cwhe9iv6e1jUZUvTSu9Prvwlo0N+euqHrJVfkZtDwECCoFCgt/YfO9737MPPvgg/pkWSWoaw5/K0OiDP13hhwjdV924ALHtIdv/yiE75HzuKdt5353l+7x7z1tWOTmyGCAGH/d+r8LX7RQzKoXnlVdeKf+da3n48OHk6DDOn0jVxHMPWX98n/320HOpn51Y7ny/QVytVwWDi3bi6Qes//bSa+3vT+q+jgDRGq9Pow4P273l1+dCBAGiUQgQ0HSOHTuWfKBLam2DpiiyUGhwP9NIg35XoxS6zb8P3V4XSzQ64vzhxQbx4aN+GlgMEA9NJTdBS/L222+X66aWmubIhQ/H7N74PpswOlWz1o/YQ7p92wM2duy8nXr63hrH1UEhX1/yWb39Xnv4lTN2xR1HgGgYAgQ0nfQURK3w4EhftulGLzRq4e5D91kXywQI8d6Td5eOuX+/NzRKgGgX1nQRZV0d7BU788rDNnjX4uPfefcDNqLOLznC5/yx/fbQ4OJo2Xduv9MGd++3ExeTA1xAqNJ1oK/b2KOH7Fyy3ufMqgeItX59Z+ylPWOLxxMgcoMAAU3Hv2yzno5fDf4LL7wQ/7/ChPtd/6oM3Wdd1BEgFhvFnfZyeRBiFQLE5agh9BpV350Hyq0lrAJ33XVX5vsuVVe5sWwHe9GO7E6G2KOOsn9bf+Ri59n/6OsVU2kXo/otjZBFnfDgTnv40Z12752lf3/nvjE7FYeC121E9+Nqq3y/I9FPqlndANH819dQgOAzWgEBApqO/yF0wWA5FCK0JsIfdfDVPGdd1BMg7C17LG40+u2p8mL8xQCx88fn7fyFDC9mnU8tzbnnBsuvoexKGnII4sUXX6x+3xP1s9xYpoO9HNXjnfp5/0N2yL+C5+OXbWe/fu9ue6p86cA5e/a+0nOs6LyunbIx3X57vz32qleDddX66gaIIry+hgJEBJ/RRQgQ0HT8D2K9AcKhEOH/vm9d1NXoZI02LN5W05WsOr8WhZW4IXXeGT0mKzFXm4sXL9rAwID3vpfUbfpZbizZwZ63/feX/uaPvZHc5OE6rjt/+FZyi6vB7OOraHqAKMbrazRA8BldhAABTWfxg7h4BYVGGJbbFEo/X2q767qoq9GJzni+W7rPh8u7Gi8GiLsfSK5zT7vC694vHthZfg1ad3EuuR3yRfWj0QVdHizm5uYqptP0/7pNaGpNxy5Xk8uyZAfr5vIHbWQydQWDfDw58/XW4rz1w8XpgHt3PmX7Xz1hZ2qNfDU9QBTj9TUcICL4jJYgQEDT8RvttEstqEwvvvTNdQ3EtUNJw3evPftxcpsXIHJfRHntPXvqbt333d6UCeSJgoC/66m/d8g777xTcdWFv0dJw7ud1tXBLqNfq9fO2aFHkw7f965Be/hwqlsrTIBYxlV+fXkECD6jJQgQ0HSWCgK1NoXSfhBZxzvzvArj8mRytrHtKW/nulUMEBGaK+7f+bKxdHJ1yAqtuk2XdCq0Sv1/reNWzMfP1tHBPmD7P8xYU+P8NCPALFy0MyeO2P69D9kDcccmU5cer0WAaIHXl0uAiOAzSoCAApDeB8JXUxT+rpMO/6wwy7z2gbCLUaOXzHfevdefkljdAKH54vOl0XPImeVqpx5rBdvlcZ1oVgcbOOfvqNpu/aIdeii5suFR7zqEtQgQLfD68goQfEYJEFAQ0jtR+mYtrNQIhC6vyzpDXNFOlOlG59plO/fmmD2wLbnf/sfsrYqGbLUDBKwWta7cCVFTGStjqQ7WW+F/35i9t5DcGJNc/nj7nVGQTaZXzr1kD+iSxtt32ssVp8GLHWz/k17odbW+bcROVHXKi6xegCjG68svQAABAgrBUmeFutLCR3PQ+m4MDTNnLaIMOjssNyZL+N3H7PWqQZDFAPGdu3TNebYjIWdasOqoZqr+vit0qfU5tVm6gy1foqhjbr/XdsYLcr1h+4rO9KK9vNM7ds+Y7X96xB663y08vNee9R/jQtQhJ9s5xzU7GHXiyY98VjNAFOH1ESDygwABhSHr2zilQoLfWLuwodXz6WN1H0HUChDajGZwpz31yqka38jpBYglZHSiWCy3diZE970sYSzTwYpk4eCdrjNMvPO+h+1QeRFvwlLHnqm+WuHiGyPl74TQ1RD7q2cHVzdAiCa/PgJEfhAgoDBoZKHW8LKGjNVga2FbrUs39bsNX2YHbU3zA0QA1y7bxWRh4cWK4f4M/GPr+Ahc/rS+41aVdn991wEECCgUCgBZ6xqWU79DeIDlUI1k1c9KpN7geocAAYVE33Hhf7dFLXVM+su1AJZiqd1L6zW9LgfgeoQAAYVFZ3ha76B1Df7Uhv5ft+lnnAXCStCVPX4gCDF0u3WAdoUAAQAAAMEQIAAAACAYAgQAAAAEQ4AAAACAYAgQAAAAEAwBAgAAAIIhQAAAAEAwBAgAAAAIhgABAAAAwRAgAAAAIBgCBAAAAARDgACAtuPnP/854pp7vUGAAIC2IqthR1wrrycIEADQcmQ13IhFt90gQABAS5DVIId47do1xNzMqrEQ2wECBAAUnqwG2DergUdstlm16tvqECAAoLBkNbq+WY321atXEZtmVk1m1a5vq0KAAIBCktXQynTjnG7Ar1y5kunnn3+OmJtZNSbT9Ziu16yalq0IAQIACkdWAyv9htg10H7j7TfwCwsLKD/5xK4884xd+e537Wpvr13r6LBrf/7ni3Z3x7df+f73beGjj7LvA5fVrz2/JrOCRFZty1aDAAEAhSKrYfUb33RwSAeGn/3sZ7GXL1+u8NKlS23tz/bvt5/96Ef2+Z132pVbb7Wrf/u39vNf//WolY+a+QAVKj6/5x67/OabmY+DJdP15eouHShCg0QrEVUMAEAxyGpQlwoO6cDgGvfPPvss9uLFixXOz8+3pJf27o1d+I//iL3y939vV//sz+zqH/1RVQCo6Re+UPqdyIWbb47v5/N//df439d+7dcyf+fab/92/Fg69tIPf2ifHT6c+fyuN9N15erNDxd+oFgqSGTVfKsQVQkAQPPJakizwoMfHFxo8MOCGvhPP/009pNPPrELFy5kev78+ab46cGDNv/EE2U/277dLv/7v5e98qd/WvIP/7CqQ6/Xq7/7u/b5X/91fH8Xh4ftk1dfzXwuvjpGz0WPnXWfvnpu7v5jv/3t8uvR68u6/1Y3q4akaszVmx8uXKBwYcIPEu0SIqJqAABoPukGdKnwkA4OflhQYz83Nxf705/+1M6dO1f27NmzuXvu1Cm7sGdP7MXbbrPPbrkl9vM/+ZOyWZ3wSrz2f/9v+T4v/cu/xI+jx3SPn/X8VuJP33jDPv3v/7ZLPT3xY+lxs55PLX/+C79Qfo66H91f1uO0qn5NqcZcvbmg4UJFOkiEhIhWIPprAwA0l3TjWSs8uFGHdHBwocGFhI8//tg++ugjO3PmTOzs7Gzshx9+2LAfv/CCzf/bv9nP/vIv7eqv/mpV57kS1UEv/PEfl9X9y0+2brVzw8N29plnMp/LWjp78mT8XC7cfnv59eu5Xvmt38p8TWl13Gfd3Xb+vvvi+8p6jFbR1ZOrL9Waas6FCxcm0kHCjUa0S4iI/rIAAM0j3WjK5cKDhorTwUENuBpzNfCnT5+2U6dO2QcffGDvv/9+7MzMTOx7770X7MyxY3burrvs89/8zaqOMe3P/uAP7PKXvhR74ZvfLHvmf/6n7KmJiczHaXX1Pun1ndfUyd/9Xc33SyMU+rmOzbqfIuvqyNWVaky1pppT7akGVYvpIKGaXS5EZH0Wikz01wQAaB7pBtOdjS0XHlxw0NmfzgbVgKsxV+N+MjrDfffdd+2dd96xEydO2PHjx+3tt9+OPRZ1cvX67vi4XfjHf7Rrv/iLFR3glV/+ZZv/m7+xczfdZKe+9z17b8+ezN/HY/bOSy/Zh/39NvdP/2SXf//3K95Hqffx5Oho5u8WUVdHqinVlmpMtaaaU+2pBlWLqknVpgsSy4UIV/fpz0ORif6CAADNw28ss8KDW/PgwoPmmNUga7hYZ3tqrHUmqLNDNeZq2NXQv/XWWzY9PW1vvPGGvf7663b06NHY1157rcJXX321yuPf/7598ld/VdXZffZ7v2czd9yR+TtYn288+6yd6u21hV/5lfL7qhEJ3ZZ1fLNN14urI9WUaks1plpTzan2VIOqRdWkalM1qlpVzap2/RCRXhORFSKKDAECAJqG31DKdIBIhwc38uDmmvWzXBvZqSmzL3+53LHF/tIvmX3962ZvvpkcBLkxNFR6f917vWFD8oPWRLWoOtVIhIKE/qvpDY1GuBCRHolQjbfqKET0FwMAaA7phtIPD27qQivYtQgtHR5ybVijBj7uvPzg8MUvmm3bZnb+fHIQrAp677/0pcX3/StfsahnTX7Ymqg2NQqhKQ79V9Ma6RChmlZtZ01l+J+JXOs8Z6K/FgBAc/AbSXf2lTX6oJXsWoym4KAhYd2eG319lWfB+n8FhxbvxFoOP8BpFKjF33+FhDfffDOe1lCI0EiEalc1rFpWTdc7ClFUCBAA0DT8RtI1nEuNPmhRmuaVc2lUNbLgn/l+4QtmW7Yw4tBMvv3txb9Hi09nqJa1ZkIhQiMRms5Q7aqGlxqFIEAAACyD30BKNZpZow+aL3ajDxoG1uK0XNBQueusdMZ78mTyA2gq3/zm4t9FgaKF+clPfhIvuNQiS62JUO2qht0oxFJrIdKfjyJCgACANSfdOLqzrnSA8EcfdG29zuA0HNwwmnfXiIM6KS2QbBQtsHzuObP77ivdNzSGC3f6G2lha4syOTkZPf2p+GoNXfqp2lUNq5b9UYh6pjFk0SBAAMCak24Y/QChoVw1pm76Qpe+ubUPWoymM7mG0boH10GFdvgHDpjt3l06O/6Lv1gMIs4WH3ovBPqbaBGr3k/tHdGivPTSS/bKK6/El4NqKkO1qxp2ayFU224aQzWv2idAAAAsQbphTAcIt/7BTV9o9bp2+dM8shalNYxb+6Cpi+XQyILWRvjrJWqpBZi6NBEaRyHNva8tOgrx/PPP28svvxxPZWgUQrWrGlYtq6bdNIa/DoIAAQCwBOmG0YUHDeG6AOGuvvCnL7TbnzbsaQgtknQdU63OXushNBfvzoKz/I3fKA2164oNhQzIl8uXF9//f/iH5MbWYnx8PB6FOHToULwWQrWrGvanMdzVGP5CShci0p+TohH9ZQAA1pZ0w+gHCLf+wQ8QWrmuy+C0ZbAWpDWEf2abXjipM111Vu7nTo0saGpCaxw0hQFrg7sqQ9NEChQtxjPPPGMvvviiHTx4MJ7GUO2qhlXL7mqMpS7nTH9Oikb0lwEAWFv8RlENZVaAcAso9XXJ/voHbR3cEG6/AY0gOBQk/H0IXGjQAktGF5qHFqe6v4eCX4sxNjZm+/fvj6cxtJhSteuvg1BthyykLBrRXwUAYG3xG8WlAoS/gFKXwOl6es0lN4TbNEpTFFkjDvq5znw11QHNR0FPf5cWXJw6Ojoa5c/n7Mc//nF5HYRqWLWcXkhJgAAAqAO/UawnQLj9H7QITV9itGIUGFxQSC+K1DA5G0kVD7cvhIJdi7F371579tln43UQhw8fjmtXNezvB0GAAAAIwG8UawUIrU73A4RWr+taei1GWzH+TodOdUzqpEIv54S1ITqLL/+tWuxqjCeffNL27dtnExMT5YWUqmHVsh8gVOsECACAOvAbRT9AaBW6GlF3CacaV/8SzhUFCI0oaPGjGwr3gwNTFcUn6ljLe21o/44WQgFCCykVILQfhB8g3KWcLkDUsxdE0SBAAMCa4zeK9QYI7eKny+D0/QLLosV3//u/pUWQ6Y2epDYnUscErYH7inVt3NVCPPHEE+UrMRQgVLuqYdUyAQIAYAX4jeJSAcLfRGrJAKFRBK1fSI8y+KoTUgek/2+xjui6RyNI7u/YQlNNChBPP/20vfDCC/GlnFkBwt9MigABALAMfqOYS4CotUukNiLSKITb78GtgdDx0DooNLi/qcJEi/D4448TIAAA8sRvFBsOEO57LaQu9dPUhfZu0KhEGhcg/D0goDVowdGjtg8Q5z48aYiIa+nZ0++W/fjUO7EffXDCZmeO24czb9upd9+0meNv2DtvvWrHXv+JvTE1aVMHJ2xyYtyef3Y0ab4iNLLg1jjU870W2rqaANGauL+dTO8gWlAe2vk9G/6f79uT//uIPbN3JK5d1bBqWTWt2laNq9ZV86p9fQb0WXCfC/+zkvVZaqYECERcc/1GsaEA4fYIUIioZ27c74SgtdCIkguLWu/SAihAPLr7/xEgEBHz0m8UGwoQ+jIrdSj1ftmSv6cAtB5u11CtbWmBq2gIEIiIOes3ig0FiN/5nbAzUn0RlgsQbBzVevg7iepbUAsOAQIRMWf9RrGhAOG+7rnW13Kn8VfzazSiGczP2OT4pM3MJ/9uVc5O2ciD/dbX128D+2bim+bfn7TxAzO2qi/N7QnRAqMQBAhExJz1G8WGAoQbgdDVFfXivkwrdTng1D0d1tHRYRsfKXWGtZmx4a+Vjh04nNwUwMzujfHv9uzJZwRkdk9PfH9V3rDRendP2fzV5MA8mRu33k49Rpd1b+i2/ucVGWZs1z/rsXts5EzpMDs8UPnvPGihUQgCBCJizvqNYkMBwl3aF/JNjW7PCO0P4eECRMf6QZteqtM9Omjrkk56JQHC5o/b6O5RO57TaXopQESd+N5Jmzyw6OiOTdYZPceue6IQkRybF/P7ejODwfyxUds1dnzx8VYjQAi39kUBssAQIBARc9ZvFBsKEAoB6khC9gZQ2Mj4nXKA6Oi0vomF5NY0CzZxR2dy3AoDRM6UAkR2Jz37mH620YbfT27IidJjDtiyX221WgHCXwyrdS0FhQCBiJizfqPYUIDQELY6kZCvenahI7VvRBwgegZtcEv03y2jNpfcXsHcqG2OgsPmHYPWkxUgLhy30W2brXt9FDI611n3Lf02eix1/n90yLo3bLXRs8m/z47a1g3dNnTUbGaszzZ1KaB0WtdNfTaS/t0MlgoQdmYkfp69+5L7cY91ZN6mdm62rhv0mkesPJniP//M5zBtQ9Hvl3+u/0+ee/zTB6N/3+a9d6sVILT2wU1FFfiSTgIEImLO+o1iQwFiypsP1//Xg75oS+FBO1Z6lALEiM1M9FlnjbP2mUc2RsGgzyZOljrmigAxP2UDX+2wzht7bWhM0wijNnRrd3RfXdFxXiec7lSTTn7zrb227qZ+GxmPfndsyDZH99XR2WvjmUlmkaAAkfy7p6fHOv+51wb3jNrIE8kUR83n3+mt15iz45oe2dYdPeZm25VMlxxPnqN7D8uBZLUChHCXdBZ4W3ICBCJizvqNYkMBwv+q5wa/I6Hc+V2dtsH1HbZux3TykwT/9qQjXgwQydTGVwdsyj9hj7rmybvWVa6rqBEgOnqGo8dObhOnh0ud/TKLLZcKEHNjm6Ofddsut3Fj8lidN+t1JrfFJM9/fb9NVjx/s+kdXVVBptYUxpoGCDf6pL9/Qa/GIEAgIuas3yg2FCCEvppbHYl2pWwAv/MrjzRcKv1MLPgjE+kAcWnC+qJ/9z2fsXbi5C7r7lhngy6P1AgQ5VGCMrM2/I3oOd2z9MhKqTPfZLuOzdv8BeeMTT2y1bo7o7Bw6/jilELyWFXPM3n+mWHlwrj1pp5fIQKEP/pU0K2tCRCIiDnrN4oNBwg3lN3glyxVdH7JWofFjjY5Q3drI9IBwp3Zd5XWBFR447r4aojysTUCRMV0SMysjfTUGyCi46rstI19ozbjjzTUeqyaz0GUgkzn9sXnUYgAodDgAkRBF1ISIBARc9ZvFBsOEO4bNhu8pK+y80sFhjhQeFdn1AgQG781YAPbsx13J8mrEiDSIxDztpB1KeoKA0T6eRQiQGjawgUIfftqASFAICLmrN8o5hYgGvyGzarOL97voTRlEU9p+OsY0h1uMsyfOYWRZlUCRJ2ddK3HypimKHN10vqjn216rPzOFCNACLf+pd6dSNcYAgQiYs76jWLDASKnxXRVnV+y4+S67UM2sD61Q2VVRzxno1tS6w0cJ0ZtaM+kzbr1FEUMEMnzr1rIGTH/fPVVKYUJEAqN+ts3uIB2tSBAICLmrN8oNhwgNHytTkSmLs0MoTpAuI4yuj19WWdWRzw9aF3RbV1bh23q/dI0wszhYduqSyP9qx4KGSAiys9/xKbP6PnP2vGx/nghZno3y8IECLeANmQr8zWEAIGImLN+o9hwgBCuI9HmQlqdvwKyAoRbTFm1sVSNjnj+2IhtvVGbLCl0yE7rvm2kctvqogaIiKrn37nOenZWf59GYQKE28qcANEUCRCIuOb6jWIuAUKhwe1MqP8265s2HZeWWMjYAizMt8jzJ0A0VQIEIq65fqOYS4AQfoiQBf6OBMgJpjCaKgECEddcv1HMLUAI7Q3gFtY1uC8EtADub02AaIoECERcc/1GMdcAIXbvXhyFmK1Y0QDthgsQuhKngBAgEBFz1m8Ucw8QOX4/BhQcFyDYB6IpEiAQcc31G8XcA4Rw21trjhzaF7fmhQDRFAkQiLjm+o3iqgQI7QehjkU2sDcEFBh/K+uC/o0JEIiIOes3iqsSIIRboa/vyCjo1z1DA/BlWk2XAIGIa67fKK5agPB3qNyyJbkR2gbt9eH+vnydd1MkQCDimus3iqsWIMSGDYudTEG/sRFWiP8dKAWFAIGImLN+o7iqAeL8ebMvfrHU0TCV0V64cFjghbIECETEnPUbxVUNEMJfUPmlL7FDZbvgLuH8+teTG4oHAQIRMWf9RnHVA4RQJ+NChNRohHYvZFqjNfFDYbO/92QJCBCIiDnrN4prEiCENpVy0xlpNTLxzW+W9hNghKL4+FfYFBgCBCJizvqN4poFCIe2uv7KVxZ3q6ylOil9n4aChRutWOFXhUOO+FuVF3QLawcBAhExZ/1Gcc0DhI9CgTohLchzZ7X16IIFm1StLfpuEzeKVODFkw4CBCJizvqNYlMDRBaawtB0h0YdtCW2woL/NeFp9TOFiYLuRdA26IoaF/I0etQCU00ECETEnPUbxcIFiKXQiIXChUYsNP+eDhMKHCzMzB8/PMiCT104CBCIiDnrN4otFSDSvPlmafQhvZ5Clxjqyg/N1zMy0RiatvDDg0aGWgQCBCJizvqNYksHCIfOkPv6al/lods1OqHRC4UOqA+FL7ffg2yh8CAIEIiIOes3im0RIHy0sFKjD37Hl9aNUGgoXlMejFJUkw4PLTJt4UOAQETMWb9RbLsA4aPhdwUKTXNorwk/RGSpoXot2vQvH9WohUKG7ut6QaM0fngo8GZRS0GAQETMWb9RbOsAkUZTHW6Ewp/XD1FB5MtfLoULTZsoXMh2+J4P7bOhBar+mhJt7tWiECAQEXPWbxSvqwCRhUYWFADUUSoUSHf5aD2jFml15t4qoxj+CE16/YhCRAuHB0GAQETMWb9RvO4DRD24kOH2p9AIhAKC3+GG6I9iqAPXyMhqopEFXZHih6Naa0QUJLZsaYspGwIEImLO+o0iASIH1EH7AcPvqOsdxdCUiqZW9Lvq7HV/cqntuxU83HFSCx3d42u78HqnadyiUt1HG0GAQETMWb9RJECsEVmjGFmbYa2mejx/akWLI1d79KOJECAQEXPWbxQJEE1Gl0u67wNR515rL4t6dSHBTZFoNOM6/YZTAgQiYs76jSIBosCkpyiy5BtKa0KAQETMWb9RJEBAu0KAQETMWb9RJEBAu0KAQETMWb9RJEBAu0KAQETMWb9RJEBAu0KAQETMWb9RvO4CxPyMTY5P2sx88m+opk3eIwIEImLO+o1iUQLE1D0d1tHRYRsfmUluqcWMDX+tdOzA4eSmAGZ2b4x/t2dPc3danBvbHD+PdTumk1uKQ1Heo0YhQCAi5qzfKBYtQHSsH7Tpq8mNWRwdtHU6LnIlAcLmj9vo7lE73tSz6zkb3ZK83s4Bm1rq9TaDQrxHjUOAQETMWb9RLFyA6Oi0vomF5NY0CzZxR2dy3AoDRBF4f9g26nU+sst6lny90AgECETEnPUbxUIFiJ5BG9SZ+ZbR6Bw9g7lR2xwFh807BqOONyNAXIjOnLdttu71UcjoXGfdt/Tb6LHUafTRIevesNVGzyb/PjtqWzd029BRs5mxPtvUpYDSaV039dlI+nfF1Vmb3NnrHddrQwfChvpnHtmYjDzM2khPh3XeMRFFozRzNnpbt3U/OB0FjlHru6nLOqPX3Nm1yfr2HLeKZxa/pujYTIesYpJkJe9RwtzBIev92rrkeWy2wYPRX6nGsbMHomO959y7c9JmK0ZaAl7fCiFAICLmrN8oFitAjNjMRF/UkWy04feTH3iUOt4+mzg5Uh0g5qds4KtRB3Rj1KGPTdrkgVEburU7uq+u6DivOzo8EHX8PTZyJvn3mdJ9bb6119bd1G8j49Hvjg3Z5ui+Ojp7bdxPMurwb4463hs2Wf+e8egxxm1k26boMToD1gtM2+D6xbUPpbUQ0eNciP/pUQoXHVt6rXe9e7zoNd3SFQeX3n3eEzs5bgPbByq9p9e61SHfPBLdU8JK36OI2T098evsvnXIRg9M2vieftt0Q/R792yteeymbSM2Xj42eS7lEBHw+lYIAQIRMWf9RrFoAWL2amUHW8a/Pen0FwNEMrXx1eisvuLUdd4m71pXua6iRoDo6BmuPEM+PRzf7geDUoCJfvd0ckPC7GM90X1uttF6+rx4Dcc6Gzya/NuNqoylfznpYKPnOuw/XhRihnW73qvkpmrmo/cz6ogrAlAD79GFcdva2WFd90xVjgzMT1hfdHvFscn0TFWgSt7PxdfZyOurDwIEImLO+o1i4QJE9P/lkYZLpZ+JBX9kIh0gLkUdWfTvvucz1hKc3BWdiUcdtssjNQJE776KrjEi6si+ET2nqNMsMWO7NnRY9w8yrhJJHr/6PqqZuifqxNVZJ/9WBz5+a/Q4VdM2SQd763hlpx0x+9im6DVEQSD5d5r55/VepUYVGniP5vf1Rv/ODkjT90fhwzt25gfd1rFhV/RupYkCTJ//elb++uqFAIGImLN+o1jEAOHOyhc7u+Ts2XWy6QCR/LuzKz3/H3ljac6+fGyNAFExHRKTdHDlADFlA3qM9RmPsaE0f7/sNIY6cZ3J3x+dyV+YLzu7Vx10etom/fiLaIqgZgd7Ono90WNsTAedBt6jpR5vIQor/rHx31FrK9KPEdl1g/c3XunrC4AAgYiYs36jWMgAkQ4McaDwrlaoESA2fiu1DsBz/GRybIMBYt3N/Zn3L4ePLD0CURpFie6zhpV7YKygg3VrHCrWGiQ08B4FB4j1Pdafcf+xj7hpEAJEoxIgEHHN9RvFYgaIiHitQOmsPJ7S8Ofo053+hXHrjf6dOTyfZsUBorQGI3MKoy6SqYqvDdm0N/pQctbG+9JTG6Ed7LxN6D6q1jgkNPAehUxhxP/OnMJIQ4BoVAIEIq65fqNY2ACR7Di5bvuQDUQdd8XZeVWnX9qYqfPW8dQ6gogToza0Z9Jm3XqKFQeIqHPcEXWOX/WCjGNu0nZp46WMDrZMMi1Tc5ojel6d/uLKwA5Wt1Wte6iggfdoLgofWYsoo1BStYgyDn5di+spyszZ5O5dNnrCPToBolEJEIi45vqNYnEDhOtI1EGl1gdkdfrTg9YV3da1ddim3i+d2c8cHrat6SH9BgKE60g7vzFg4ydm48eYPTFuA99Y4sw/ofRavMdNU3X1Sf0d7MKRgfi1r/vWLps4oMszfacWg8FK36OI2Sc2x9MvnTf1laYitvXaxhs2Wl+fFjz6x87Z+K3R+9G5yQbGj9usRljOHLfx7brc1Q84BIhGJUAg4prrN4pFDhDurL3qCoUanf78sRHbemPUeel3Yjut+7aRyi2ZGwkQ4uykDd7kP4Y61UGbTG2kVEny/R21NshKiEc4ylef1N/BLgatLCuDwIreo4T5Y6M2+K1NpUWRyQZUmcHo6pxN7lBg8J7HDZtKG0+VIUA0KgECEddcv1EsSoDIlUuls+uF9FRDniyUHmO+jiUFhSSn96jU2WdthBVxdaH0HjXpTSJAICLmrN8otmWAgHy5Om/HH9lqAwdSczTR7dWLP4sDAQIRMWf9RpEAAcuT7GzZ0Wmb+nYlW1kPWV88lbPUws3mQoBARMxZv1EkQEC9lL4ga3FjqM1RmBg/WczwIAgQiIg56zeKBAhoVwgQiIg56zeKBAhoVwgQiIg56zeKBAhoVwgQiIg56zeKBAhoVwgQiIg56zeKBAhoVwgQiIg56zeKBAhoVwgQiIg56zeKBAhoVwgQiIg56zeKBAhoVwgQiIg56zeKBAhoVwgQiIg56zeKBAhoVwgQiIg56zeKBAhoVwgQiIg56zeKBAhoVwgQiIg56zeKBAhoVwgQiIg56zeKBAhoVwgQiIg56zeKBAhoVwgQiIg56zeKBAhoVwgQiIg56zeKBAhoVwgQiIg56zeKBAhoVwgQiIg56zeKBAhoVwgQiIg56zeKBAhoVwgQiIg56zeKBAhoVwgQiIg56zeKBAhoVwgQiIg56zeKBAhoVwgQiIg56zeKBAhoVwgQiIg56zeKBAhoVwgQiIg56zeKBAhoVwgQiIg56zeKBAhoVwgQiIg56zeKBAhoVwgQiIg56zeKBAhoVwgQiIg56zeKBAhoVwgQiIg56zeKhQwQc6O2uaPDOtYP2vTV5LZVZdZGeqLHu2cq+Te0AwQIRMSc9RvFIgaIubHN1qEA0dFpA4eTG1cVAkQ7QoBARMxZv1EsXoCYseGvdVjnHcO2K+rUO++YsIXkJ6sHAaIdIUAgIuas3ygWLkC8P2wbk5GH2T091tHZZxOXkp+VmbPR27qt+8Hp5N+LTD8Y3X7baHSEx4XjNrpts3Wv74xHNbpu6rORY/PJD0WNAHF11iZ39tqmrtLvrbtxsw0emE1+mOLspA19a6Ot64zu54Yu27xj0uauTtvQhm7bOlbxbIKOnT82av23dMfHdq7vts3bRu34heSHCe41z16YsiH/2Ph+k4OuQwgQiIg56zeKRQsQ0/evW1z7kKyF6N3nd/ai9ojB1D3R7T0j0REJl6Zs4KtRh3rjVhsen7TJA+M2HIWPzo6NtutkckzW/UXhYeTmKDjcsMn694zHvzeybVP0ex3WFR1X8YxOj1iPOu0be21oLHqM8RHrvykKKvcM2Nbo+J49XugIOHb+8IB1RcGl+9YhGz0QHTs2ZL03Rs/pqwM25T2B+DV/ozf6Wbf17ow6ST3Xu5Lnen91yLpeIEAgIuas3ygWKkBEZ+GD6zts3Q7X6c3Z6Jaoc9ySGlEICRAH+62jY5MNn07+HTNnEw8O2si064Wr72/mkY3R7/Wkfk/rM3qjjrnLBsv98ryNb63u1HX7RJ9GLvxQEHDspQnri4JGVViZn7T+ivcoec0d66z/oH/kvE3eFYWxzuixrtNRiLYPEJcuXTJExLX0s88+K3vx4sXY+fl5++STT+zChQv205/+1D7++GObnZ21Dz74wN59911766237NVXX7WDBw8mzfMqEJ1xd0Yd4WLnHHWD+3qjznGzjVYkiIAAcaR0n/0HKrrhFOn7m7FdGzqsM+P+zZKQ487sL4xbb9Txb05PU4jpQVvnh4KAYxee74ted9b0TfTsftBdGqVJ/h2/Zu/fZeLw1GMjZ5J/X2cMDw/b448/bs8884y9+OKLce2qhlXLqmnVtmpcta6aV+3rM6DPgvtc+J+VrM9SMyVAIOKa6zeKxQkQCzZxh87OB23qwrzNO0+Pxp3uxkdmkuNEQIDQVMSW0tl9Z9dm63twxCZPzNlCxVl5+v6mbMDv+FNM3hUde/NIaVTkzIj1RMdmXi2iUQT/fgKOjdd/aL3Ghm7rThuv5RiInmWJqtfsiAIZAYIAgYiYm36jWJgAkQzZly7fzPBrw7YYIQIChLi6YLOHR2yob7N1xwsiS2sixsvTE2EBouIxVjVAbLTe7QM2kOl4+f0gQGRDgEBEzFm/USxKgChNVWy0oWlv9CFxdl9famoj6fDvmkz+vUjNztTnzLj1rY+O63OXiKYDRGqaooJZG/6G99irNIVRej+ypzDSECCyIUAgIuas3ygWI0AkiyVrdfxXp2ygs3LhYDyNkN6pMllg6N/P3NERG3pwInW/CzbR5x9XPaIxvUNXg/TbZHrpxMld8WWmfRNud4o5G79VUy+phZFX5228ahFlwLHxFSid1ruvOmwcHxuykYOz5f0xCBDZECAQEXPWbxQLESCSof3FjraaUoe+GBgWJjQq0WGdNw16lzhuso1fSwWI6Ey+M+qIex6cspl4RGPWpvdsta6Kx8uYEpkbt15dbvmNAZt8vzQSMnN4yDbfEN12c3T/fnA5PRLfrks+++LphX7r/edO29jXZ5vSryvg2On7u6IA0GVbH3HPfcamHtFzj16PdxwBIhsCBCJizvqNYhECROmSyfSVFimOaojfP/Oft+OP9JY2Y4o6XnXIgwfnbLKqM42OiwJDt7++onOd9eycsvlyCMgIEOLspA3eVBoZKKmOftRmKhZgJmizqh29tile6LjZ+seO23ytYFT3sVnPvdu27omOT44QBIhsCBCIiDnrN4pFCBCNsjBfx2bXVxfKayoqr8Cog0sr/L0kFFRvhJXBMscuxM+9jtcJZQgQiIg56zeK7RAgms38sWHbun3SG9EoMT+eXvwZdiw0BgECETFn/UaRANE4pS2ntR6jz3Yl21MP9WVvex1yLDQGAQIRMWf9RpEAkRNn9AVZmxY3e7olCgjjM1UjDTEhx8KKIUAgIuas3ygSIKBdIUAgIuas3ygSIKBdIUAgIuas3ygSIKBdIUAgIuas3ygSIKBdIUAgIuas3ygSIKBdIUAgIuas3ygSIKBdUYB44oknCBCIiHnpN4qhAeKVV15JmmeAYpMOEKpdAgQiYgP6jSIBAtoVAgQiYs76jSIBAtqVxx57jACBiJinfqO4VIA4c+YMAQJaFgWIJ5980vbt22cTExOZAUI1ToBARKxTv1GsN0AcO3bMXnvtNTt06FDSPAMUmx/+8IdxgHj22WfjAKHaVQ2rlgkQiIgr0G8U/QDx6aefxo3o3NxcOUCcOnXKTp48SYCAlkMB4qmnnooDxEsvvVQRIFTTqm0XIFTzqn19BggQiIg19BvFWgHi7NmzFQHi7bfftqNHj9rhw4eT5hmg2OzZs8f27t1r4+Pj9uMf/ziuXdWwatkPEKp1AgQiYh36jWI9AeK9996LG93XX3+dAAEtw8jIiP3oRz+y5557zg4cOBDXrmpYtayaJkAgIgbqN4rLBYjTp0/Hje3x48ftjTfesJ/85CdJ8wxQbLQL5djYmD3//PP28ssvx7WrGlYtq6ZV2wQIRMQA/UZRZgWIc+fO2UcffWQffvihzczM2IkTJ2x6etqOHDmSNM8AxcZdgeF2oVTtqoZVy6pp1bZqXLWeFSDSn5Osz1IzJUAg4pqbbhj9AKFV6OfPn68IEO+//76988479uabb8aXwQG0AqOjo/H6B7eAUrWrGlYtq6b9AKGaV+0TIBARlzDdMKqxdCHCBQh3Kae/mZRWr2sR2rVr15ImGqCYXL161Z5++ul4+sKtf1Dt+pdw+ptIuQDhwgMBAhExw3TDmA4QGspVo5peSOnWQejnAEVGIwsafdD+D5q+mJqaqlj/4C+grGcPCJn1WWqmBAhEXHPTDaMfIPx1EC5A+NMY2sVPjTCjEFBUNPowOTlpL7zwQrx4UqMP2v9BtetPX4QsoJRZn6VmSoBAxKaYbhyzAoTmht00hs7Y3H4QOpPTULCGfQkSUBQUHDTyoPDgpi609kGLJ1Wz/v4PbvqiVRdQSgIEIjZNv4F0Z11qRP11EP4ohFau6wxO4UHX02tYWN8voIZaZ3saMta8sxavaQdAXUana/G1oY92BZT6fgKpb0pErFdXN66OVFOqLdWYak01p9pTDaoWVZOqTdWoalU1q9p1V1/40xf+Akr3OfA/G1mfnSJIgEDEpuk3kq7hzBqF0FmdG4XQ/LEug9NwsBalqYHWWZ6GijXfrDM/NeK6fE7X4GsjH+0GqEZe6tI6fUOirzoBxLTpOlHtuDpSTam2VGOqNdWcak81qFpUTao2VaOqVdWsW/ugWnZXX9QzfZH12SmCBAhEbJp+Iyn9AFFrFEKr1zUMrHUQaph1dqchYs0za7Gazvx02ZyuvVeDrl0A1bjr+wikGnt9vTJiqKodV0eqKdWWaky1pppT7akGVYuqSdWmW7OjmlXtLjX60ErTF5IAgYhNM91QurOvrFEIzRenQ4TO6jQ0rPllLVLTGZ8ab539qSHXmaAadX0PgRp4nR1KNfiIobr6US2pplRbqjHVmmpOtacaVC26dTqq0XR4WGrtAwECEbFO/YYyHSB0ZrZUiNCQsOaVtThNZ3pqtDVkrA17dAaorYPVqLtQITUv7avGH7GW6XpxdeTqSjWmWlPNqfZUg6pF1aRqUzW6VHhIjz6kA0TWZ6YoEiAQsan6jaXMChEa5s0KEZpP1qI0neGpsdZQsc76tNuftgxWY65hZDXsOiuUaugRV6qrI9WUaks1plpTzan2VIOqRdWkalM1mhUesqYu0uFBZn1miiIBAhGbarrBlC5ALBcitBjNBQldW6+zPe3ypwZcQ8dqzHUmKNW4S50dIq5UV0eurlRjqjXVnGpPNahadMFBNbpceHABIuuzkPWZKYoECERsuulG052NLRUitAhNK9nTQULDxWrAdfanxlzqbFCqgUdsVFdPrr5Ua6o51V46OKhGVavLhYesAJH1WSmSBAhELITpxrNWiHBrIrSCPR0k/DAh9XXJatCdauARG9WvKdWYqzcXGtLBQbWqmk2veWjl8CAJEIhYCNMNqFwqRLjRCD9ISA0Vq/H2Q0WWauwR6zWrhpyu3lR7rg794KBaDQkPMuszUjQJEIhYGLMa0qwQkQ4SfphwgcIPFU418IiNmq4rV2+u/lxoSAeHdgoPkgCBiIUyq0F1jW2tIOHCRDpQ+LrGHTEP0/XlBwYXGpYKDjKr1rM+E0WVAIGIhTOrYZV+45sOEn6Y8AMF4lro155fk/UGB5n1WSiyBAhELKRZDaz0G2LpGmin33j7+g08YqNm1ZhM12O6XrNqWmZ9BoouAQIRC2tWQ+ubbpxlugFHXEuzajKrdn2zar8VJEAgYuHNanR9sxptxGabVau+WbXeShIgELElzGqAQ8xq4BFXalaNhZhV460mAQIRW86sBhmx6GbVcitLgEDEtjKr4UZcK7Nqsl0lQCBi25nVsCOutlm12M4SIBARETFYAgQiIiIGS4BARETEYAkQiIiIGCwBAhEREYMlQCAiImKwBAhEREQMlgCBiIiIwRIgEBERMVgCBCIiIgZLgEBERMRgCRCIiIgYLAECERERgyVAICIiYrAECERERAyWAIGIiIjBEiAQERExWAIEIiIiBkuAQERExGAJEIiIiBgsAQIRERGDJUAgIiJisAQIREREDJYAgYiIiMESIBARETFYAgQiIiIGS4BARETEYAkQiIiIGCwBAhEREYMlQCAiImKwBAhEREQMlgCBiIiIwRIgEBERMVgCBCIiIgZLgEBERMRgCRCIiIgYLAECERERgyVAICIiYrAECERERAyWAIGIiIjBEiAQERExWAIEIiIiBkuAQERExGAJEIiIiBgsAQIRERGDJUAgIiJisAQIREREDJYAgYiIiMESIBARETFYAgQiIiIGS4BARETEYAkQiIiIGCwBAhEREYMlQCAiImKwBAhEREQMlgCBiIiIwRIgEBERMVgCBCIiIgZLgEBERMRgCRCIiIgYLAECERERgyVAICIiYrAECERERAyWAIGIiIjBEiAQERExWAIEIiIiBkuAQERExGAJEIiIiBgsAQIRERGDJUAgIiJisAQIREREDJYAgYiIiMESIBARETFYAgQiIiIGS4BARETEYAkQiIiIGCwBAhEREYMlQCAiImKwBAhEREQMlgCBiIiIwRIgEBERMVgCBCIiIgZLgEBERMRgCRCIiIgYLAECERERgyVAICIiYrAECERERAyWAIGIiIjBEiAQERExWAIEIiIiBkuAQERExGAJEIiIiBgsAQIRERGDJUAgIiJisAQIREREDJYAgYiIiMESIBARETFYAgQiIiIGS4BARETEYAkQiIiIGCwBAhEREYMlQCAiImKwBAhEREQMlgCBiIiIwRIgEBERMVgCBCIiIgZLgEBERMRgCRCIiIgYLAECERERgyVAICIiYrAECERERAyWAIGIiIjBEiAQERExWAIEIiIiBkuAQERExGAJEIiIiBgsAQIRERGDJUAgIiJisAQIREREDJYAgYiIiMESIBARETFYAgQiIiIGS4BARETEYAkQiIiIGCwBAhEREYMlQCAiImKwBAhEREQMlgCBiIiIgV6y/w87SAEdmpk/IgAAAABJRU5ErkJggg==;clipPath=inset(7.4% 0.67% 35.65% 29.33%);" vertex="1" parent="082rzm5pcQB5HZsoXUOI-1">
                    <mxGeometry x="560" y="110" width="180" height="108.86" as="geometry"/>
                </mxCell>
                <mxCell id="082rzm5pcQB5HZsoXUOI-5" value="&lt;font style=&quot;font-size: 14px;&quot;&gt;Test1&lt;/font&gt;" style="strokeWidth=1;shadow=0;dashed=0;align=center;html=1;shape=mxgraph.mockup.text.textBox;fontColor=#666666;align=left;fontSize=17;spacingLeft=4;spacingTop=-3;strokeColor=#666666;mainText=" vertex="1" parent="082rzm5pcQB5HZsoXUOI-1">
                    <mxGeometry x="43" y="200" width="150" height="30" as="geometry"/>
                </mxCell>
                <mxCell id="082rzm5pcQB5HZsoXUOI-6" value="&lt;font style=&quot;font-size: 14px;&quot;&gt;test1@test1.ch&lt;/font&gt;" style="strokeWidth=1;shadow=0;dashed=0;align=center;html=1;shape=mxgraph.mockup.text.textBox;fontColor=#666666;align=left;fontSize=17;spacingLeft=4;spacingTop=-3;strokeColor=#666666;mainText=" vertex="1" parent="082rzm5pcQB5HZsoXUOI-1">
                    <mxGeometry x="43" y="340" width="150" height="30" as="geometry"/>
                </mxCell>
                <mxCell id="082rzm5pcQB5HZsoXUOI-7" value="&lt;font style=&quot;font-size: 14px;&quot;&gt;+41 77 888 22 11&lt;/font&gt;" style="strokeWidth=1;shadow=0;dashed=0;align=center;html=1;shape=mxgraph.mockup.text.textBox;fontColor=#666666;align=left;fontSize=17;spacingLeft=4;spacingTop=-3;strokeColor=#666666;mainText=" vertex="1" parent="082rzm5pcQB5HZsoXUOI-1">
                    <mxGeometry x="43" y="420" width="150" height="30" as="geometry"/>
                </mxCell>
                <mxCell id="082rzm5pcQB5HZsoXUOI-8" value="&lt;font style=&quot;font-size: 14px;&quot;&gt;First Name&lt;/font&gt;" style="text;html=1;resizable=0;autosize=1;align=left;verticalAlign=middle;points=[];fillColor=none;strokeColor=none;rounded=0;shadow=0;" vertex="1" parent="082rzm5pcQB5HZsoXUOI-1">
                    <mxGeometry x="43" y="170" width="90" height="30" as="geometry"/>
                </mxCell>
                <mxCell id="082rzm5pcQB5HZsoXUOI-9" value="&lt;font style=&quot;font-size: 14px;&quot;&gt;Test1&lt;/font&gt;" style="strokeWidth=1;shadow=0;dashed=0;align=center;html=1;shape=mxgraph.mockup.text.textBox;fontColor=#666666;align=left;fontSize=17;spacingLeft=4;spacingTop=-3;strokeColor=#666666;mainText=" vertex="1" parent="082rzm5pcQB5HZsoXUOI-1">
                    <mxGeometry x="43" y="270" width="150" height="30" as="geometry"/>
                </mxCell>
                <mxCell id="082rzm5pcQB5HZsoXUOI-10" value="Save" style="strokeWidth=1;shadow=0;dashed=0;align=center;html=1;shape=mxgraph.mockup.buttons.button;strokeColor=#666666;fontColor=#ffffff;mainText=;buttonStyle=round;fontSize=12;fontStyle=1;fillColor=#00CC00;whiteSpace=wrap;" vertex="1" parent="082rzm5pcQB5HZsoXUOI-1">
                    <mxGeometry x="43" y="480" width="144" height="40" as="geometry"/>
                </mxCell>
                <mxCell id="082rzm5pcQB5HZsoXUOI-11" value="&lt;font style=&quot;font-size: 14px;&quot;&gt;E-Mail&lt;/font&gt;" style="text;html=1;resizable=0;autosize=1;align=left;verticalAlign=middle;points=[];fillColor=none;strokeColor=none;rounded=0;shadow=0;" vertex="1" parent="082rzm5pcQB5HZsoXUOI-1">
                    <mxGeometry x="43" y="315" width="60" height="30" as="geometry"/>
                </mxCell>
                <mxCell id="082rzm5pcQB5HZsoXUOI-12" value="&lt;font style=&quot;font-size: 14px;&quot;&gt;Last Name&lt;/font&gt;" style="text;html=1;resizable=0;autosize=1;align=left;verticalAlign=middle;points=[];fillColor=none;strokeColor=none;rounded=0;shadow=0;" vertex="1" parent="082rzm5pcQB5HZsoXUOI-1">
                    <mxGeometry x="43" y="240" width="90" height="30" as="geometry"/>
                </mxCell>
                <mxCell id="082rzm5pcQB5HZsoXUOI-13" value="&lt;font style=&quot;font-size: 14px;&quot;&gt;Phone Number&lt;/font&gt;" style="text;html=1;resizable=0;autosize=1;align=left;verticalAlign=middle;points=[];fillColor=none;strokeColor=none;rounded=0;shadow=0;" vertex="1" parent="082rzm5pcQB5HZsoXUOI-1">
                    <mxGeometry x="43" y="390" width="120" height="30" as="geometry"/>
                </mxCell>
                <mxCell id="082rzm5pcQB5HZsoXUOI-14" value="&lt;font style=&quot;font-size: 18px;&quot;&gt;Mein Profil&lt;/font&gt;" style="text;html=1;strokeColor=none;fillColor=none;align=left;verticalAlign=middle;whiteSpace=wrap;rounded=0;shadow=0;" vertex="1" parent="082rzm5pcQB5HZsoXUOI-1">
                    <mxGeometry x="43" y="110" width="164" height="60" as="geometry"/>
                </mxCell>
                <mxCell id="082rzm5pcQB5HZsoXUOI-15" value="Delete my profil &lt;br&gt;and all data" style="strokeWidth=1;shadow=0;dashed=0;align=center;html=1;shape=mxgraph.mockup.buttons.button;strokeColor=#666666;fontColor=#ffffff;mainText=;buttonStyle=round;fontSize=12;fontStyle=1;fillColor=#FF3333;whiteSpace=wrap;" vertex="1" parent="082rzm5pcQB5HZsoXUOI-1">
                    <mxGeometry x="520" y="430" width="144" height="40" as="geometry"/>
                </mxCell>
                <mxCell id="wHUAW4nkqfsjr-IhuH9V-1" value="&lt;font style=&quot;font-size: 10px;&quot;&gt;This will delete your profile and all data. This action cannot be reversed!&lt;/font&gt;" style="text;html=1;strokeColor=none;fillColor=none;align=left;verticalAlign=middle;whiteSpace=wrap;rounded=0;shadow=0;fontSize=14;" vertex="1" parent="082rzm5pcQB5HZsoXUOI-1">
                    <mxGeometry x="520" y="470" width="190" height="60" as="geometry"/>
                </mxCell>
            </root>
        </mxGraphModel>
    </diagram>
    <diagram id="-38wsfw1QEdXV6y2rUju" name="Meine-Anzeigen_Read">
        <mxGraphModel dx="734" dy="373" grid="1" gridSize="10" guides="1" tooltips="1" connect="1" arrows="1" fold="1" page="1" pageScale="1" pageWidth="827" pageHeight="1169" math="0" shadow="0">
            <root>
                <mxCell id="0"/>
                <mxCell id="1" parent="0"/>
            </root>
        </mxGraphModel>
    </diagram>
    <diagram id="eypbrwtSZwLoH7tIX8KT" name="Meine-Anzeigen_Update">
        <mxGraphModel dx="1278" dy="556" grid="1" gridSize="10" guides="1" tooltips="1" connect="1" arrows="1" fold="1" page="1" pageScale="1" pageWidth="827" pageHeight="1169" math="0" shadow="0">
            <root>
                <mxCell id="0"/>
                <mxCell id="1" parent="0"/>
            </root>
        </mxGraphModel>
    </diagram>
    <diagram id="O8SF6HyJD0XIOzfXOneR" name="Meine-Anzeigen_Delete">
        <mxGraphModel dx="1278" dy="556" grid="1" gridSize="10" guides="1" tooltips="1" connect="1" arrows="1" fold="1" page="1" pageScale="1" pageWidth="827" pageHeight="1169" math="0" shadow="0">
            <root>
                <mxCell id="0"/>
                <mxCell id="1" parent="0"/>
            </root>
        </mxGraphModel>
    </diagram>
</mxfile>